<?xml version="1.0" encoding="UTF-8" standalone="no"?>
<svg
   xmlns:dc="http://purl.org/dc/elements/1.1/"
   xmlns:cc="http://creativecommons.org/ns#"
   xmlns:rdf="http://www.w3.org/1999/02/22-rdf-syntax-ns#"
   xmlns:svg="http://www.w3.org/2000/svg"
   xmlns="http://www.w3.org/2000/svg"
   xmlns:sodipodi="http://sodipodi.sourceforge.net/DTD/sodipodi-0.dtd"
   xmlns:inkscape="http://www.inkscape.org/namespaces/inkscape"
   version="1.0"
   width="428.000000pt"
   height="118.000000pt"
   viewBox="0 0 428.000000 118.000000"
   preserveAspectRatio="xMidYMid meet"
   id="svg3592"
   inkscape:version="0.91 r13725"
   sodipodi:docname="bitso.svg">
  <defs
     id="defs3616" />
  <sodipodi:namedview
     pagecolor="#ffffff"
     bordercolor="#666666"
     borderopacity="1"
     objecttolerance="10"
     gridtolerance="10"
     guidetolerance="10"
     inkscape:pageopacity="0"
     inkscape:pageshadow="2"
     inkscape:window-width="1920"
     inkscape:window-height="1017"
     id="namedview3614"
     showgrid="false"
     inkscape:zoom="2.482243"
     inkscape:cx="-0.13680397"
     inkscape:cy="79.584165"
     inkscape:window-x="-8"
     inkscape:window-y="-8"
     inkscape:window-maximized="1"
     inkscape:current-layer="svg3592" />
  <metadata
     id="metadata3594">
Created by potrace 1.15, written by Peter Selinger 2001-2017
<rdf:RDF>
  <cc:Work
     rdf:about="">
    <dc:format>image/svg+xml</dc:format>
    <dc:type
       rdf:resource="http://purl.org/dc/dcmitype/StillImage" />
    <dc:title></dc:title>
  </cc:Work>
</rdf:RDF>
</metadata>
  <g
     transform="translate(0.000000,118.000000) scale(0.100000,-0.100000)"
     fill="#000000"
     stroke="none"
     id="g3596">
    <path
       d="M0 858 c0 -355 7 -412 58 -522 58 -123 187 -243 317 -294 70 -27 182 -43 254 -35 l61 6 -2 166 -3 166 -80 1 c-91 0 -138 19 -192 76 -66 69 -68 79 -70 433 l-3 320 -170 3 -170 2 0 -322z"
       id="path3598" />
    <path
       d="M525 1171 l-40 -6 -3 -154 c-2 -101 1 -158 8 -167 8 -9 26 -11 59 -7 75 9 151 -18 205 -73 71 -71 76 -98 76 -426 l0 -279 53 28 c71 38 185 154 224 228 96 183 91 402 -14 572 -85 138 -199 226 -343 266 -66 19 -170 27 -225 18z"
       id="path3600" />
    <path
       d="M2355 1081 l-60 -6 -3 -72 -3 -73 96 0 95 0 0 80 0 80 -32 -2 c-18 -1 -60 -4 -93 -7z"
       id="path3602" />
    <path
       d="M1500 590 l0 -402 228 5 c254 5 306 15 369 70 46 40 63 82 63 152 0 71 -28 126 -81 162 l-40 26 31 25 c63 49 88 149 56 225 -7 18 -29 47 -49 64 -61 53 -116 64 -359 70 l-218 6 0 -403z m372 240 c78 -22 101 -107 43 -157 -23 -21 -37 -23 -126 -23 l-99 0 0 89 c0 62 4 91 13 94 22 10 131 7 169 -3z m72 -349 c30 -28 33 -64 12 -116 -12 -29 -20 -34 -58 -40 -24 -3 -79 -5 -123 -3 l-80 3 -3 93 -3 94 115 -4 c105 -3 117 -5 140 -27z"
       id="path3604" />
    <path
       d="M2682 973 l-33 -4 3 -344 c3 -329 4 -345 24 -372 34 -47 88 -68 174 -67 41 1 87 6 103 12 26 11 27 14 27 83 0 69 -1 71 -22 66 -127 -31 -128 -30 -128 174 l0 159 75 0 75 0 0 75 0 75 -75 0 -75 0 0 75 0 75 -57 -2 c-32 0 -73 -3 -91 -5z"
       id="path3606" />
    <path
       d="M3243 826 c-109 -36 -157 -97 -157 -201 -1 -111 43 -150 206 -186 115 -25 128 -32 128 -69 0 -26 -4 -30 -36 -36 -47 -9 -211 1 -245 15 -15 5 -30 7 -33 4 -3 -4 -6 -35 -6 -69 0 -77 5 -81 131 -96 235 -29 379 51 366 205 -3 32 -12 69 -21 82 -25 39 -95 72 -186 90 -95 19 -130 36 -130 65 0 34 35 43 149 37 58 -3 116 -9 129 -13 23 -6 23 -6 20 71 l-3 78 -40 14 c-58 21 -220 26 -272 9z"
       id="path3608" />
    <path
       d="M3895 831 c-47 -12 -108 -47 -136 -78 -61 -65 -96 -184 -85 -289 18 -180 117 -276 284 -278 138 -1 228 47 279 152 23 48 28 72 31 158 6 161 -35 252 -138 308 -44 24 -69 30 -130 32 -41 2 -88 0 -105 -5z m150 -194 c27 -27 34 -44 40 -92 9 -69 -7 -169 -30 -195 -22 -24 -79 -34 -120 -20 -55 18 -80 69 -80 165 0 97 17 142 59 161 54 23 94 18 131 -19z"
       id="path3610" />
    <path
       d="M2292 513 l3 -318 93 -3 92 -3 0 321 0 320 -95 0 -95 0 2 -317z"
       id="path3612" />
  </g>
  <path
     style="fill:#ffffff"
     d="M 65.873132,146.26039 C 47.818743,144.42513 33.890512,137.51851 20.731162,123.87574 13.785295,116.67472 9.3771177,110.16592 6.0189473,102.15275 0.8802716,89.890997 0.22065705,81.879585 0.21208722,31.624991 L 0.20671611,0.1281976 13.601859,0.3124464 c 7.367329,0.10133686 16.855413,0.28912238 21.084632,0.41730113 L 42.37598,0.96279985 42.651759,34.25803 c 0.346666,41.853284 0.722411,47.715942 3.422791,53.404688 2.273082,4.788584 8.788189,11.203915 13.957091,13.743352 4.772405,2.34464 6.694494,2.68048 16.618035,2.90362 l 8.963667,0.20156 4.03e-4,5.28983 c 3.14e-4,2.90941 0.119823,12.19068 0.26557,20.62505 l 0.264998,15.33522 -5.402054,0.47767 c -6.019213,0.53225 -9.790169,0.53766 -14.869297,0.0213 l 1.69e-4,2e-5 z"
     id="path3618"
     inkscape:connector-curvature="0"
     transform="scale(0.8,0.8)" />
  <path
     style="fill:#ffffff"
     d="M 103.63734,106.14759 C 103.49811,76.44656 103.39488,71.883892 102.77876,68.198084 101.53771,60.773872 99.845878,57.42621 94.695671,52.203977 87.569584,44.97823 79.632104,42.095466 68.323637,42.626079 60.996822,42.969869 61.132809,43.077486 60.624062,36.532929 60.415593,33.851176 60.363507,25.109 60.507085,16.899496 L 60.76591,2.1004011 62.010221,1.8925602 C 68.910314,0.74001793 73.775098,0.5873489 80.837036,1.301728 c 23.317574,2.3587836 41.312584,13.550907 54.716604,34.031368 13.4069,20.484871 14.80678,47.610877 3.63785,70.492004 -2.90216,5.94549 -6.30136,10.50176 -12.88351,17.269 -7.61078,7.8248 -11.50214,10.90236 -18.61123,14.71905 l -3.90115,2.09444 -0.15826,-33.76 z"
     id="path3620"
     inkscape:connector-curvature="0"
     transform="scale(0.8,0.8)" />
  <path
     style="fill:#ffffff"
     d="m 187.53729,73.625893 0,-50.218817 4.53219,0.225342 c 2.49271,0.123938 11.23983,0.406014 19.43806,0.626836 34.59474,0.93182 40.77609,2.129472 48.42071,9.38163 5.42711,5.148498 7.0775,8.845393 7.13613,15.985042 0.0334,4.071146 -0.10168,5.059182 -1.11431,8.148449 -1.49907,4.573257 -3.78463,7.920304 -7.73583,11.328584 -1.75871,1.517056 -3.24105,2.876713 -3.29408,3.021461 -0.053,0.144748 1.4607,1.26026 3.36386,2.478915 4.20367,2.691755 6.99135,5.637764 8.87593,9.380053 1.81091,3.595982 2.5453,7.106585 2.55408,12.209309 0.008,4.682803 -0.96836,9.160373 -2.68564,12.315573 -1.70398,3.13078 -7.17774,8.05764 -11.11829,10.00742 -7.08359,3.50497 -13.89507,4.11648 -56.38768,5.06226 l -11.98513,0.26676 0,-50.218817 z m 51.76201,33.025847 c 3.25153,-0.75995 4.64425,-2.29884 6.01901,-6.65072 1.73791,-5.501453 1.28233,-8.832509 -1.65479,-12.099293 -0.95354,-1.060561 -2.46976,-2.222804 -3.36939,-2.582765 -2.25753,-0.903283 -7.30005,-1.341512 -19.25884,-1.673728 l -10.21247,-0.283703 0.2381,5.591721 c 0.13095,3.075448 0.34918,8.441728 0.48494,11.925068 l 0.24685,6.33335 5.09461,0.1551 c 8.45941,0.25754 19.79855,-0.10422 22.41198,-0.71503 z m -3.41864,-40.946035 c 2.48943,-0.704576 6.05765,-4.276496 6.97921,-6.986447 2.48902,-7.3192 -2.14388,-13.879165 -11.00782,-15.586557 -3.59862,-0.693174 -17.62571,-0.729354 -18.81615,-0.04853 -1.41264,0.807899 -1.71825,2.877151 -1.99972,13.540058 l -0.26449,10.01976 11.64805,-0.212594 c 7.59297,-0.138585 12.27917,-0.391219 13.46092,-0.725687 z"
     id="path3622"
     inkscape:connector-curvature="0"
     transform="scale(0.8,0.8)" />
  <path
     style="fill:#ffffff"
     d="m 296.74387,123.28533 c -5.18987,-0.18893 -9.50287,-0.41026 -9.58445,-0.49184 -0.0816,-0.0816 -0.27687,-17.84675 -0.43398,-39.47816 l -0.28567,-39.32984 11.7837,1.88e-4 11.7837,1.88e-4 0,39.883283 0,39.883281 -1.91359,-0.0618 c -1.05248,-0.034 -6.15985,-0.21638 -11.34971,-0.40532 z"
     id="path3624"
     inkscape:connector-curvature="0"
     transform="scale(0.8,0.8)" />
  <path
     style="fill:#ffffff"
     d="m 286.43066,27.367831 c 0.11472,-2.049558 0.31731,-6.027358 0.45021,-8.839556 l 0.24163,-5.113087 1.06865,-0.214087 c 0.58776,-0.117748 4.60376,-0.489907 8.92445,-0.827019 4.32069,-0.337112 8.98885,-0.709569 10.37368,-0.827682 l 2.51789,-0.214751 0,9.881325 0,9.881325 -11.89255,0 -11.89254,0 0.20858,-3.726468 z"
     id="path3626"
     inkscape:connector-curvature="0"
     transform="scale(0.8,0.8)" />
  <path
     style="fill:#ffffff"
     d="m 349.63528,123.73091 c -5.34527,-0.69705 -9.57593,-2.5692 -12.89113,-5.70458 -2.77599,-2.62541 -3.67839,-4.57411 -4.16776,-9.00006 -0.52886,-4.7832 -1.43809,-81.906356 -0.97086,-82.351642 0.42244,-0.402608 9.97607,-1.155277 16.97562,-1.337399 l 4.93505,-0.128406 0,9.388521 0,9.388522 9.46725,0 9.46724,0 0,9.056957 0,9.056958 -9.36653,0.10814 -9.36652,0.10814 -0.11912,15.107305 c -0.12078,15.317316 0.27331,23.120324 1.29064,25.555154 0.29905,0.71571 1.06422,1.71461 1.7004,2.21978 1.04947,0.83337 1.45542,0.89881 4.37958,0.70599 1.77259,-0.11688 4.83569,-0.60351 6.80688,-1.0814 2.86691,-0.69504 3.64827,-0.76488 3.90524,-0.34909 0.58777,0.95103 0.88324,5.68429 0.65886,10.55436 -0.26243,5.69612 -0.68749,6.54685 -3.79473,7.59499 -3.63713,1.22688 -13.54555,1.80732 -18.91011,1.10776 z"
     id="path3628"
     inkscape:connector-curvature="0"
     transform="scale(0.8,0.8)" />
  <path
     style="fill:#ffffff"
     d="m 408.30536,124.31496 c -9.46023,-1.15187 -11.84576,-1.49053 -14.01538,-1.98968 -5.7254,-1.31723 -6.52006,-2.59598 -6.49849,-10.45726 0.008,-2.88046 0.14383,-5.96235 0.30205,-6.84865 0.26714,-1.49642 0.37332,-1.60221 1.48751,-1.48209 0.65991,0.0711 2.07818,0.38373 3.1517,0.69465 3.57041,1.03409 13.14156,1.90647 21.4141,1.95184 12.17842,0.0668 13.76681,-0.5703 13.41874,-5.38221 -0.2938,-4.061745 -1.54312,-4.853888 -11.43864,-7.252767 -17.32942,-4.201011 -21.60826,-5.835206 -25.51963,-9.746572 -3.35674,-3.356744 -4.52147,-7.032529 -4.50745,-14.225182 0.0158,-8.098765 1.85818,-13.283573 6.29786,-17.723254 3.43927,-3.439267 9.52259,-6.635773 15.15313,-7.962274 3.2581,-0.767574 19.96432,-0.627008 25.19539,0.211994 3.73485,0.599026 9.64606,2.261723 10.98682,3.090356 0.42664,0.263678 0.55183,2.260695 0.58553,9.340239 l 0.0429,9.004853 -1.20858,-0.0499 c -0.66473,-0.02745 -3.83726,-0.365747 -7.05008,-0.751777 -3.68146,-0.44234 -9.11877,-0.721822 -14.70444,-0.75582 -7.71408,-0.04695 -9.11109,0.04179 -10.77722,0.684639 -1.05285,0.406222 -2.18589,1.126388 -2.51788,1.60037 -0.78845,1.125668 -0.77269,3.887603 0.0287,5.031767 1.31487,1.877243 6.15322,3.686721 15.31814,5.728775 14.54797,3.241462 22.61606,7.763948 24.4243,13.690789 1.93402,6.339134 1.99885,13.608187 0.16173,18.133597 -2.94361,7.25104 -10.12609,12.32954 -20.59487,14.56197 -3.53356,0.75351 -15.65976,1.32485 -19.13592,0.9016 z"
     id="path3630"
     inkscape:connector-curvature="0"
     transform="scale(0.8,0.8)" />
  <path
     style="fill:#ffffff"
     d="m 491.09339,123.89806 c -9.04919,-1.02209 -15.15937,-3.56881 -20.38132,-8.49494 -5.23051,-4.93419 -8.48285,-11.17755 -10.32932,-19.828715 -1.36733,-6.406206 -1.43128,-15.239856 -0.15417,-21.294281 2.10216,-9.965804 6.81738,-18.793979 12.28563,-23.002047 5.02167,-3.864411 11.46461,-6.993871 15.89211,-7.719109 3.10936,-0.509321 13.40701,-0.476646 17.22698,0.05466 6.71372,0.933793 12.69777,4.051759 18.1109,9.436618 4.26401,4.241728 6.33798,7.947901 8.12772,14.524143 1.07058,3.933773 1.09036,4.222371 1.07557,15.690466 -0.0175,13.593117 -0.29456,15.217507 -3.78471,22.191823 -5.55331,11.0971 -14.33912,16.86399 -27.86231,18.28846 -3.61353,0.38063 -7.65499,0.44118 -10.20708,0.15292 z m 12.31373,-17.83065 c 3.83839,-1.45327 5.16248,-3.54111 6.6687,-10.515279 0.55597,-2.57422 0.74183,-5.174534 0.74867,-10.474398 0.0132,-10.264984 -0.93937,-13.277184 -5.56854,-17.607544 -3.31795,-3.103777 -5.51294,-3.916912 -9.88948,-3.663558 -2.21942,0.128481 -3.75351,0.486464 -5.48845,1.280747 -2.74832,1.258222 -3.90684,2.221653 -5.30288,4.409907 -3.35637,5.261003 -3.89031,21.241719 -0.96673,28.934133 0.94686,2.491352 3.33317,5.468342 5.41439,6.754602 3.50317,2.16508 9.95043,2.56013 14.38432,0.88139 z"
     id="path3632"
     inkscape:connector-curvature="0"
     transform="scale(0.8,0.8)" />
</svg>
