<svg width="13" height="13" viewBox="0 0 13 13" fill="none" xmlns="http://www.w3.org/2000/svg">
<path fill-rule="evenodd" clip-rule="evenodd" d="M7.43569 6.37519L12.5304 1.28044C12.8237 0.987187 12.8237 0.513187 12.5304 0.219937C12.2372 -0.0733125 11.7632 -0.0733125 11.4699 0.219937L6.37519 5.31469L1.28044 0.219937C0.987187 -0.0733125 0.513187 -0.0733125 0.219937 0.219937C-0.0733125 0.513187 -0.0733125 0.987187 0.219937 1.28044L5.31469 6.37519L0.219937 11.4699C-0.0733125 11.7632 -0.0733125 12.2372 0.219937 12.5304C0.366187 12.6767 0.558187 12.7502 0.750187 12.7502C0.942187 12.7502 1.13419 12.6767 1.28044 12.5304L6.37519 7.43569L11.4699 12.5304C11.6162 12.6767 11.8082 12.7502 12.0002 12.7502C12.1922 12.7502 12.3842 12.6767 12.5304 12.5304C12.8237 12.2372 12.8237 11.7632 12.5304 11.4699L7.43569 6.37519Z" fill="#A4AAB3"/>
</svg>
