<svg width="100" height="100" viewBox="0 0 100 100" fill="none" xmlns="http://www.w3.org/2000/svg">
<circle cx="50" cy="50" r="50" fill="#D2ECF8"/>
<path d="M31.625 29C31.625 29.9406 31.3144 30.8734 30.75 31.625C29.9284 32.7205 28.6202 33.375 27.25 33.375H26.375V35.125H27.25C28.6194 35.125 29.9284 35.7795 30.75 36.875C31.3144 37.6266 31.625 38.5594 31.625 39.5V41.25H33.375V39.5C33.375 38.5594 33.6856 37.6266 34.25 36.875C35.0716 35.7795 36.3798 35.125 37.75 35.125H38.625V33.375H37.75C36.3806 33.375 35.0716 32.7205 34.25 31.625C33.6856 30.8734 33.375 29.9406 33.375 29V27.25H31.625V29ZM32.85 32.675C33.333 33.319 33.9403 33.8457 34.6193 34.25C33.9403 34.6543 33.333 35.181 32.85 35.825C32.7179 36.0009 32.6111 36.1925 32.5 36.3806C32.388 36.1916 32.2821 36 32.15 35.825C31.667 35.181 31.0597 34.6543 30.3808 34.25C31.0597 33.8457 31.667 33.319 32.15 32.675C32.2821 32.4991 32.3889 32.3075 32.5 32.1194C32.6111 32.3075 32.7179 32.4991 32.85 32.675ZM33.375 24.625H31.625V22.875H33.375V24.625ZM33.375 44.75H31.625V43H33.375V44.75ZM42.125 33.375V35.125H40.375V33.375H42.125ZM22.875 33.375H24.625V35.125H22.875V33.375ZM68.375 71.875C68.375 70.9344 68.6856 70.0016 69.25 69.25C70.0716 68.1545 71.3797 67.5 72.75 67.5H73.625V65.75H72.75C71.3806 65.75 70.0716 65.0955 69.25 63.9991C68.6856 63.2484 68.375 62.3156 68.375 61.375V59.625H66.625V61.375C66.625 62.3156 66.3144 63.2484 65.75 64C64.9284 65.0955 63.6203 65.75 62.25 65.75H61.375V67.5H62.25C63.6194 67.5 64.9284 68.1545 65.75 69.2509C66.3144 70.0016 66.625 70.9344 66.625 71.875V73.625H68.375V71.875ZM67.15 68.2009C66.667 67.5569 66.0589 67.0293 65.3799 66.625C66.0589 66.2207 66.6661 65.694 67.1491 65.05C67.2812 64.8741 67.388 64.6825 67.4991 64.4935C67.6111 64.6816 67.717 64.8733 67.8491 65.0491C68.3321 65.6931 68.9403 66.2207 69.6193 66.625C68.9403 67.0293 68.333 67.556 67.85 68.2C67.7179 68.3759 67.6111 68.5675 67.5 68.7565C67.388 68.5675 67.2821 68.3759 67.15 68.2009ZM66.625 55.25H68.375V57H66.625V55.25ZM66.625 75.375H68.375V77.125H66.625V75.375ZM75.375 65.75H77.125V67.5H75.375V65.75ZM57.875 67.5V65.75H59.625V67.5H57.875ZM60.9953 42.125H39.0047L33.158 51.8699L50 69.6472L66.842 51.8699L60.9953 42.125ZM54.0565 52.625L50 65.4691L45.9435 52.625H54.0565ZM46.2952 50.875L50 44.701L53.7048 50.875H46.2952ZM51.5452 43.875H58.9548L55.25 50.049L51.5452 43.875ZM44.75 50.049L41.0452 43.875H48.4548L44.75 50.049ZM43.2048 50.875H35.7952L39.5 44.701L43.2048 50.875ZM44.1086 52.625L48.0208 65.0141L36.2844 52.625H44.1086ZM55.8914 52.625H63.7156L51.9793 65.0141L55.8914 52.625ZM56.7952 50.875L60.5 44.701L64.2048 50.875H56.7952ZM65.75 36.875H64V35.125H65.75V36.875ZM64 36.875V38.625H62.25V36.875H64ZM64 38.625H65.75V40.375H64V38.625ZM65.75 36.875H67.5V38.625H65.75V36.875ZM36.875 64.875H35.125V63.125H36.875V64.875ZM35.125 64.875V66.625H33.375V64.875H35.125ZM35.125 68.375V66.625H36.875V68.375H35.125ZM36.875 66.625V64.875H38.625V66.625H36.875Z" fill="#20A0DA"/>
</svg>
