<svg width="192" height="41" viewBox="0 0 192 41" fill="none" xmlns="http://www.w3.org/2000/svg">
<path d="M18.1424 12.654L1 1L7.61939 12.3845C7.61939 12.3845 2.2551 29.1652 11.1826 35.54L12.31 38.1672H22.0105L27.1372 34.6642L29.775 38.4614L32.4625 34.5614L37.5325 38.1778H47.2329L48.3604 35.5506C48.3604 35.5506 57.1106 31.4769 51.9555 12.381L58.5714 1L41.429 12.654L29.7892 11.2145L18.1424 12.654Z" stroke="white" stroke-width="0.25" stroke-linejoin="round"/>
<path d="M18.1424 12.6362L29.7821 29.2184L41.429 12.6362L29.7892 11.1968L18.1424 12.6362Z" stroke="white" stroke-width="0.25" stroke-linejoin="round"/>
<path d="M29.7822 29.2184L32.4767 34.5508L34.6076 32.4731L37.1745 29.2184" stroke="white" stroke-width="0.25" stroke-linejoin="round"/>
<path d="M1 1L23.964 20.9291L29.775 18.0856L35.6002 20.9255L58.5714 1" stroke="white" stroke-width="0.25" stroke-linejoin="round"/>
<path d="M7.61938 12.381L8.19375 10.4487L10.6366 19.1457L9.00921 26.2792L12.388 34.1005L14.4515 38.1672V34.9762L16.3909 30.4168L13.1397 25.9034L9.00921 26.2792" stroke="white" stroke-width="0.25" stroke-linejoin="round"/>
<path d="M16.3909 30.4168L22.4005 29.2184L26.3537 24.315L24.9638 32.4731L14.4515 34.9762L12.388 34.1005L11.2003 35.54" stroke="white" stroke-width="0.25" stroke-linejoin="round"/>
<path d="M22.0247 38.1672L24.9639 32.4731L22.4005 29.2184" stroke="white" stroke-width="0.25" stroke-linejoin="round"/>
<path d="M24.9638 32.4731L27.1549 34.6642L29.7821 29.2184L29.7892 11.1968" stroke="white" stroke-width="0.25" stroke-linejoin="round"/>
<path d="M51.9519 12.381L51.3776 10.4487L48.9348 19.1457L45.9956 22.0246L46.4352 25.9034L43.1804 30.4168L37.1744 29.2184L33.2 24.3079L34.6075 32.4731L37.5467 38.1672" stroke="white" stroke-width="0.25" stroke-linejoin="round"/>
<path d="M34.6075 32.4731L45.1198 34.9762L47.1833 34.1005L50.5621 26.2792L48.9347 19.1457L45.836 18.465" stroke="white" stroke-width="0.25" stroke-linejoin="round"/>
<path d="M46.4352 25.9034L50.5621 26.2792H53.3843" stroke="white" stroke-width="0.25" stroke-linejoin="round"/>
<path d="M43.1805 30.4167L45.1199 34.9762V38.1671L47.1833 34.1005L48.3746 35.54" stroke="white" stroke-width="0.25" stroke-linejoin="round"/>
<path d="M41.7729 20.181C42.4944 20.6583 43.0644 21.3319 43.4157 22.1224C43.7671 22.9129 43.8853 23.7874 43.7562 24.6428C43.6272 25.4982 43.2563 26.2989 42.6874 26.9505C42.1184 27.6022 41.3751 28.0777 40.5449 28.3209C39.7148 28.5642 38.8324 28.5651 38.0017 28.3235C37.171 28.082 36.4267 27.6081 35.8564 26.9576C35.2861 26.3071 34.9136 25.5072 34.7828 24.6521C34.652 23.7969 34.7683 22.9222 35.118 22.131C36.0239 21.35 37.0865 20.7718 38.2343 20.4355C39.3822 20.0991 40.5887 20.0124 41.7729 20.181ZM41.5212 23.964C41.5226 23.3995 41.3112 22.8551 40.9291 22.4395C40.8543 22.293 40.728 22.1794 40.5745 22.1204C40.1619 21.8305 39.6639 21.6876 39.1604 21.7145C38.6568 21.7414 38.1769 21.9365 37.7975 22.2687C37.4181 22.6008 37.1611 23.0507 37.0679 23.5463C36.9746 24.0418 37.0504 24.5544 37.2832 25.0017C37.5159 25.449 37.892 25.8053 38.3514 26.0134C38.8107 26.2215 39.3266 26.2694 39.8163 26.1493C40.3061 26.0293 40.7414 25.7483 41.0524 25.3514C41.3635 24.9546 41.5323 24.4647 41.5318 23.9605L41.5212 23.964Z" fill="url(#paint0_linear)"/>
<path d="M41.0035 22.7444C41.0038 22.6382 40.9782 22.5336 40.9291 22.4395C41.315 22.8689 41.5214 23.43 41.5059 24.0072C41.4904 24.5844 41.2541 25.1336 40.8456 25.5417C40.4372 25.9498 39.8878 26.1857 39.3106 26.2007C38.7335 26.2158 38.1725 26.0089 37.7433 25.6226C37.3142 25.2364 37.0495 24.7003 37.0039 24.1247C36.9583 23.5491 37.1352 22.978 37.4982 22.529C37.8612 22.08 38.3826 21.7873 38.9549 21.7113C39.5272 21.6353 40.1069 21.7817 40.5745 22.1204C40.5028 22.0951 40.4273 22.0819 40.3512 22.0814C40.221 22.0821 40.094 22.1212 39.9861 22.194C39.8782 22.2667 39.7943 22.3697 39.7448 22.4901C39.6953 22.6104 39.6826 22.7427 39.7081 22.8703C39.7337 22.9979 39.7964 23.1151 39.8884 23.2071C39.9804 23.2991 40.0976 23.3619 40.2252 23.3874C40.3528 23.413 40.4851 23.4002 40.6055 23.3507C40.7258 23.3013 40.8288 23.2173 40.9016 23.1094C40.9743 23.0015 41.0135 22.8745 41.0142 22.7444H41.0035Z" fill="#0D3B66"/>
<path d="M40.9291 22.4394C40.9964 22.5676 41.02 22.7142 40.9962 22.857C40.9723 22.9998 40.9024 23.1308 40.7972 23.2302C40.6919 23.3295 40.5569 23.3916 40.413 23.4071C40.2691 23.4226 40.1241 23.3905 40.0001 23.3158C39.8761 23.2411 39.7799 23.1279 39.7263 22.9934C39.6727 22.859 39.6646 22.7107 39.7032 22.5712C39.7418 22.4316 39.825 22.3086 39.94 22.2208C40.0551 22.133 40.1958 22.0853 40.3405 22.0849C40.4166 22.0855 40.4921 22.0986 40.5639 22.1239C40.6963 22.2161 40.8187 22.3218 40.9291 22.4394Z" fill="#F1F1F1"/>
<path d="M40.9291 22.4395C40.8222 22.3212 40.7034 22.2142 40.5745 22.1204C40.728 22.1793 40.8543 22.293 40.9291 22.4395Z" fill="#F1F1F1"/>
<path d="M33.2532 24.3079C33.2532 24.3079 33.3276 24.1732 33.4765 23.9534C33.9404 23.2767 34.4924 22.6651 35.1181 22.1345C36.024 21.3535 37.0865 20.7753 38.2344 20.439C39.3822 20.1027 40.5888 20.0159 41.7729 20.1845H41.8368C47.0061 19.9363 50.5338 12.4412 51.328 10.6118" stroke="white" stroke-width="0.25" stroke-linejoin="round"/>
<path d="M45.9956 22.0247L41.7871 20.1881" stroke="white" stroke-width="0.25" stroke-linejoin="round"/>
<path d="M4.11291 19.3478C4.43012 19.3478 4.68727 19.0907 4.68727 18.7735C4.68727 18.4562 4.43012 18.1991 4.11291 18.1991C3.79569 18.1991 3.53854 18.4562 3.53854 18.7735C3.53854 19.0907 3.79569 19.3478 4.11291 19.3478Z" fill="white"/>
<path d="M14.7103 9.95586C15.0941 9.95586 15.4052 9.64474 15.4052 9.26095C15.4052 8.87716 15.0941 8.56604 14.7103 8.56604C14.3265 8.56604 14.0154 8.87716 14.0154 9.26095C14.0154 9.64474 14.3265 9.95586 14.7103 9.95586Z" fill="white"/>
<path d="M55.3946 19.3549C55.7373 19.3549 56.0151 19.0771 56.0151 18.7344C56.0151 18.3917 55.7373 18.114 55.3946 18.114C55.052 18.114 54.7742 18.3917 54.7742 18.7344C54.7742 19.0771 55.052 19.3549 55.3946 19.3549Z" fill="white"/>
<path d="M29.7998 30.1898C30.3442 30.1898 30.7855 29.7486 30.7855 29.2042C30.7855 28.6599 30.3442 28.2186 29.7998 28.2186C29.2555 28.2186 28.8142 28.6599 28.8142 29.2042C28.8142 29.7486 29.2555 30.1898 29.7998 30.1898Z" fill="white"/>
<path d="M53.2035 39.4684C53.4659 39.4684 53.6786 39.2557 53.6786 38.9933C53.6786 38.7309 53.4659 38.5182 53.2035 38.5182C52.9412 38.5182 52.7285 38.7309 52.7285 38.9933C52.7285 39.2557 52.9412 39.4684 53.2035 39.4684Z" fill="white"/>
<path d="M7.65127 37.0574C7.91366 37.0574 8.12637 36.8447 8.12637 36.5823C8.12637 36.3199 7.91366 36.1072 7.65127 36.1072C7.38888 36.1072 7.17618 36.3199 7.17618 36.5823C7.17618 36.8447 7.38888 37.0574 7.65127 37.0574Z" fill="white"/>
<path d="M43.2443 30.5976C43.4303 30.5976 43.5811 30.4468 43.5811 30.2608C43.5811 30.0748 43.4303 29.924 43.2443 29.924C43.0583 29.924 42.9075 30.0748 42.9075 30.2608C42.9075 30.4468 43.0583 30.5976 43.2443 30.5976Z" fill="white"/>
<path d="M50.431 40.4504C50.7325 40.4504 50.9769 40.206 50.9769 39.9044C50.9769 39.6029 50.7325 39.3584 50.431 39.3584C50.1294 39.3584 49.8849 39.6029 49.8849 39.9044C49.8849 40.206 50.1294 40.4504 50.431 40.4504Z" fill="white"/>
<path d="M17.6141 41C17.9156 41 18.1601 40.7556 18.1601 40.454C18.1601 40.1525 17.9156 39.908 17.6141 39.908C17.3125 39.908 17.0681 40.1525 17.0681 40.454C17.0681 40.7556 17.3125 41 17.6141 41Z" fill="white"/>
<path d="M22.0495 38.628C22.3118 38.628 22.5246 38.4153 22.5246 38.1529C22.5246 37.8906 22.3118 37.6779 22.0495 37.6779C21.7871 37.6779 21.5744 37.8906 21.5744 38.1529C21.5744 38.4153 21.7871 38.628 22.0495 38.628Z" fill="white"/>
<path d="M29.7857 18.7487C30.1479 18.7487 30.4416 18.455 30.4416 18.0927C30.4416 17.7305 30.1479 17.4368 29.7857 17.4368C29.4234 17.4368 29.1298 17.7305 29.1298 18.0927C29.1298 18.455 29.4234 18.7487 29.7857 18.7487Z" fill="white"/>
<path d="M37.5468 38.7096C37.8483 38.7096 38.0928 38.4652 38.0928 38.1636C38.0928 37.8621 37.8483 37.6176 37.5468 37.6176C37.2452 37.6176 37.0008 37.8621 37.0008 38.1636C37.0008 38.4652 37.2452 38.7096 37.5468 38.7096Z" fill="white"/>
<path d="M51.6329 22.8224C51.7934 22.8224 51.9236 22.6922 51.9236 22.5316C51.9236 22.3711 51.7934 22.2409 51.6329 22.2409C51.4723 22.2409 51.3421 22.3711 51.3421 22.5316C51.3421 22.6922 51.4723 22.8224 51.6329 22.8224Z" fill="white"/>
<path d="M55.2386 9.7963C55.3992 9.7963 55.5294 9.66614 55.5294 9.50557C55.5294 9.34501 55.3992 9.21484 55.2386 9.21484C55.0781 9.21484 54.9479 9.34501 54.9479 9.50557C54.9479 9.66614 55.0781 9.7963 55.2386 9.7963Z" fill="white"/>
<path d="M47.4065 34.2724C47.4764 34.1278 47.4157 33.954 47.2711 33.8841C47.1265 33.8143 46.9527 33.875 46.8829 34.0196C46.8131 34.1642 46.8737 34.338 47.0183 34.4078C47.1629 34.4776 47.3367 34.417 47.4065 34.2724Z" fill="white"/>
<path d="M45.4066 35.0875C45.4764 34.9429 45.4158 34.7691 45.2712 34.6993C45.1266 34.6295 44.9528 34.6901 44.883 34.8347C44.8132 34.9793 44.8738 35.1531 45.0184 35.223C45.163 35.2928 45.3368 35.2321 45.4066 35.0875Z" fill="white"/>
<path d="M14.7593 35.0886C14.8291 34.944 14.7685 34.7702 14.6239 34.7004C14.4793 34.6306 14.3055 34.6912 14.2357 34.8358C14.1659 34.9804 14.2265 35.1542 14.3711 35.2241C14.5157 35.2939 14.6895 35.2332 14.7593 35.0886Z" fill="white"/>
<path d="M1.95728 26.9847C2.17854 26.9847 2.35792 26.8054 2.35792 26.5841C2.35792 26.3628 2.17854 26.1835 1.95728 26.1835C1.73601 26.1835 1.55664 26.3628 1.55664 26.5841C1.55664 26.8054 1.73601 26.9847 1.95728 26.9847Z" fill="white"/>
<path d="M56.0151 27.8605C56.2364 27.8605 56.4157 27.6811 56.4157 27.4598C56.4157 27.2386 56.2364 27.0592 56.0151 27.0592C55.7938 27.0592 55.6145 27.2386 55.6145 27.4598C55.6145 27.6811 55.7938 27.8605 56.0151 27.8605Z" fill="white"/>
<path d="M37.88 10.0161C38.1012 10.0161 38.2806 9.83675 38.2806 9.61548C38.2806 9.39422 38.1012 9.21484 37.88 9.21484C37.6587 9.21484 37.4793 9.39422 37.4793 9.61548C37.4793 9.83675 37.6587 10.0161 37.88 10.0161Z" fill="white"/>
<path d="M48.9383 19.5535C49.1596 19.5535 49.339 19.3741 49.339 19.1528C49.339 18.9316 49.1596 18.7522 48.9383 18.7522C48.7171 18.7522 48.5377 18.9316 48.5377 19.1528C48.5377 19.3741 48.7171 19.5535 48.9383 19.5535Z" fill="white"/>
<path d="M19.9151 32.5299C20.0757 32.5299 20.2058 32.3997 20.2058 32.2392C20.2058 32.0786 20.0757 31.9484 19.9151 31.9484C19.7545 31.9484 19.6244 32.0786 19.6244 32.2392C19.6244 32.3997 19.7545 32.5299 19.9151 32.5299Z" fill="white"/>
<path d="M40.3406 32.4448C40.4542 32.4448 40.5462 32.3527 40.5462 32.2391C40.5462 32.1256 40.4542 32.0335 40.3406 32.0335C40.227 32.0335 40.1349 32.1256 40.1349 32.2391C40.1349 32.3527 40.227 32.4448 40.3406 32.4448Z" fill="white"/>
<path d="M12.42 34.5649C12.6608 34.5649 12.8561 34.3697 12.8561 34.1288C12.8561 33.888 12.6608 33.6927 12.42 33.6927C12.1791 33.6927 11.9839 33.888 11.9839 34.1288C11.9839 34.3697 12.1791 34.5649 12.42 34.5649Z" fill="white"/>
<path d="M26.1941 39.7591C26.3547 39.7591 26.4849 39.6289 26.4849 39.4683C26.4849 39.3078 26.3547 39.1776 26.1941 39.1776C26.0336 39.1776 25.9034 39.3078 25.9034 39.4683C25.9034 39.6289 26.0336 39.7591 26.1941 39.7591Z" fill="white"/>
<path d="M25.3645 10.4841C25.525 10.4841 25.6552 10.3539 25.6552 10.1934C25.6552 10.0328 25.525 9.90265 25.3645 9.90265C25.2039 9.90265 25.0737 10.0328 25.0737 10.1934C25.0737 10.3539 25.2039 10.4841 25.3645 10.4841Z" fill="white"/>
<path d="M33.4943 39.7945C33.6548 39.7945 33.785 39.6644 33.785 39.5038C33.785 39.3432 33.6548 39.2131 33.4943 39.2131C33.3337 39.2131 33.2036 39.3432 33.2036 39.5038C33.2036 39.6644 33.3337 39.7945 33.4943 39.7945Z" fill="white"/>
<path d="M24.9709 32.6469C25.0845 32.6469 25.1765 32.5548 25.1765 32.4412C25.1765 32.3277 25.0845 32.2356 24.9709 32.2356C24.8573 32.2356 24.7653 32.3277 24.7653 32.4412C24.7653 32.5548 24.8573 32.6469 24.9709 32.6469Z" fill="white"/>
<path d="M27.1408 34.8309C27.2543 34.8309 27.3464 34.7388 27.3464 34.6253C27.3464 34.5117 27.2543 34.4196 27.1408 34.4196C27.0272 34.4196 26.9351 34.5117 26.9351 34.6253C26.9351 34.7388 27.0272 34.8309 27.1408 34.8309Z" fill="white"/>
<path d="M32.4837 34.7741C32.5973 34.7741 32.6894 34.6821 32.6894 34.5685C32.6894 34.4549 32.5973 34.3629 32.4837 34.3629C32.3702 34.3629 32.2781 34.4549 32.2781 34.5685C32.2781 34.6821 32.3702 34.7741 32.4837 34.7741Z" fill="white"/>
<path d="M16.5289 30.5449C16.6092 30.4646 16.6092 30.3344 16.5289 30.2541C16.4486 30.1738 16.3184 30.1738 16.2381 30.2541C16.1578 30.3344 16.1578 30.4646 16.2381 30.5449C16.3184 30.6252 16.4486 30.6252 16.5289 30.5449Z" fill="white"/>
<path d="M22.4951 29.3538C22.5754 29.2735 22.5754 29.1433 22.4951 29.063C22.4148 28.9827 22.2846 28.9827 22.2043 29.063C22.124 29.1433 22.124 29.2735 22.2043 29.3538C22.2846 29.4341 22.4148 29.4341 22.4951 29.3538Z" fill="white"/>
<path d="M33.4379 24.537C33.5597 24.4151 33.5597 24.2176 33.4379 24.0957C33.316 23.9739 33.1185 23.9739 32.9966 24.0957C32.8748 24.2176 32.8748 24.4151 32.9966 24.537C33.1185 24.6588 33.316 24.6588 33.4379 24.537Z" fill="white"/>
<path d="M45.9956 22.209C46.1091 22.209 46.2012 22.1169 46.2012 22.0034C46.2012 21.8898 46.1091 21.7977 45.9956 21.7977C45.882 21.7977 45.7899 21.8898 45.7899 22.0034C45.7899 22.1169 45.882 22.209 45.9956 22.209Z" fill="white"/>
<path d="M46.4423 26.1267C46.5558 26.1267 46.6479 26.0347 46.6479 25.9211C46.6479 25.8075 46.5558 25.7155 46.4423 25.7155C46.3287 25.7155 46.2366 25.8075 46.2366 25.9211C46.2366 26.0347 46.3287 26.1267 46.4423 26.1267Z" fill="white"/>
<path d="M34.6182 32.693C34.7317 32.693 34.8238 32.6009 34.8238 32.4873C34.8238 32.3737 34.7317 32.2817 34.6182 32.2817C34.5046 32.2817 34.4125 32.3737 34.4125 32.4873C34.4125 32.6009 34.5046 32.693 34.6182 32.693Z" fill="white"/>
<path d="M37.1709 29.6829C37.4274 29.6829 37.6353 29.4749 37.6353 29.2184C37.6353 28.9619 37.4274 28.754 37.1709 28.754C36.9144 28.754 36.7064 28.9619 36.7064 29.2184C36.7064 29.4749 36.9144 29.6829 37.1709 29.6829Z" fill="white"/>
<path d="M34.487 20.1137C34.6475 20.1137 34.7777 19.9835 34.7777 19.823C34.7777 19.6624 34.6475 19.5322 34.487 19.5322C34.3264 19.5322 34.1962 19.6624 34.1962 19.823C34.1962 19.9835 34.3264 20.1137 34.487 20.1137Z" fill="white"/>
<path d="M7.36056 28.0413C7.52112 28.0413 7.65128 27.9111 7.65128 27.7506C7.65128 27.59 7.52112 27.4598 7.36056 27.4598C7.19999 27.4598 7.06982 27.59 7.06982 27.7506C7.06982 27.9111 7.19999 28.0413 7.36056 28.0413Z" fill="white"/>
<path d="M9.04115 26.499C9.15472 26.499 9.24678 26.407 9.24678 26.2934C9.24678 26.1798 9.15472 26.0878 9.04115 26.0878C8.92758 26.0878 8.83551 26.1798 8.83551 26.2934C8.83551 26.407 8.92758 26.499 9.04115 26.499Z" fill="white"/>
<path d="M50.4983 26.5841C50.6589 26.5841 50.7891 26.4539 50.7891 26.2934C50.7891 26.1328 50.6589 26.0026 50.4983 26.0026C50.3378 26.0026 50.2076 26.1328 50.2076 26.2934C50.2076 26.4539 50.3378 26.5841 50.4983 26.5841Z" fill="white"/>
<path d="M17.3943 20.3583C17.4794 20.2909 17.5645 20.2306 17.6566 20.1703C17.7169 20.1703 17.7772 20.1703 17.8375 20.1703C21.2766 20.3724 23.1557 21.3758 24.4143 22.3898C24.7019 23.1781 24.7654 24.0307 24.5976 24.8528C24.4299 25.675 24.0374 26.4345 23.464 27.0471C22.8905 27.6596 22.1584 28.1012 21.3491 28.3227C20.5397 28.5442 19.6848 28.537 18.8793 28.3018C18.0739 28.0667 17.3493 27.6128 16.7863 26.9907C16.2232 26.3686 15.8437 25.6025 15.6898 24.7776C15.5359 23.9528 15.6138 23.1014 15.9147 22.3181C16.2156 21.5348 16.7277 20.8503 17.3943 20.3405V20.3583ZM22.404 23.9605C22.4075 23.3979 22.1986 22.8547 21.819 22.4394C21.7442 22.293 21.618 22.1793 21.4645 22.1204C21.0518 21.8305 20.5539 21.6876 20.0503 21.7145C19.5468 21.7414 19.0668 21.9365 18.6874 22.2687C18.308 22.6008 18.0511 23.0507 17.9578 23.5463C17.8646 24.0418 17.9404 24.5543 18.1731 25.0017C18.4058 25.449 18.782 25.8053 19.2413 26.0134C19.7006 26.2215 20.2165 26.2693 20.7063 26.1493C21.196 26.0293 21.6313 25.7483 21.9424 25.3514C22.2534 24.9545 22.4222 24.4647 22.4217 23.9605H22.404Z" fill="url(#paint1_linear)"/>
<path d="M21.8829 22.7444C21.8831 22.6382 21.8575 22.5336 21.8084 22.4395C22.1943 22.8689 22.4008 23.43 22.3853 24.0072C22.3697 24.5844 22.1334 25.1336 21.725 25.5417C21.3166 25.9498 20.7671 26.1857 20.19 26.2007C19.6128 26.2158 19.0518 26.0089 18.6227 25.6226C18.1935 25.2364 17.9289 24.7003 17.8833 24.1247C17.8377 23.5491 18.0146 22.978 18.3775 22.529C18.7405 22.08 19.2619 21.7873 19.8342 21.7113C20.4066 21.6353 20.9863 21.7817 21.4539 22.1204C21.3821 22.0951 21.3066 22.0819 21.2305 22.0814C21.1004 22.0821 20.9734 22.1212 20.8655 22.194C20.7576 22.2667 20.6736 22.3697 20.6241 22.4901C20.5747 22.6104 20.5619 22.7427 20.5875 22.8703C20.613 22.9979 20.6757 23.1151 20.7678 23.2071C20.8598 23.2991 20.9769 23.3619 21.1045 23.3874C21.2321 23.413 21.3644 23.4002 21.4848 23.3507C21.6051 23.3013 21.7082 23.2173 21.7809 23.1094C21.8536 23.0015 21.8928 22.8745 21.8935 22.7444H21.8829Z" fill="#0D3B66"/>
<path d="M21.819 22.4394C21.8855 22.5669 21.9085 22.7127 21.8845 22.8545C21.8604 22.9962 21.7908 23.1263 21.686 23.2248C21.5812 23.3233 21.4472 23.3848 21.3042 23.4001C21.1612 23.4153 21.0171 23.3834 20.894 23.3092C20.7708 23.235 20.6753 23.1226 20.6219 22.9891C20.5685 22.8556 20.5603 22.7082 20.5984 22.5696C20.6365 22.4309 20.7189 22.3085 20.833 22.221C20.9471 22.1335 21.0867 22.0857 21.2304 22.0849C21.3065 22.0855 21.382 22.0986 21.4538 22.1239C21.5867 22.2155 21.7091 22.3213 21.819 22.4394Z" fill="#F1F1F1"/>
<path d="M21.819 22.4395C21.7127 22.3206 21.5938 22.2136 21.4644 22.1204C21.6179 22.1793 21.7442 22.293 21.819 22.4395Z" fill="#F1F1F1"/>
<path d="M13.7708 21.9396C13.7753 21.9606 13.7753 21.9824 13.7708 22.0034C13.7708 22.0579 13.7492 22.1102 13.7106 22.1488C13.672 22.1874 13.6197 22.209 13.5652 22.209H13.5475L13.5687 22.0247L13.7708 21.9396Z" fill="white"/>
<path d="M13.7708 21.9395L13.5793 22.0211L13.4233 21.8686C13.4418 21.845 13.4655 21.8261 13.4926 21.8131C13.5197 21.8002 13.5493 21.7937 13.5793 21.7941C13.6226 21.7947 13.6645 21.8091 13.699 21.8353C13.7335 21.8614 13.7586 21.898 13.7708 21.9395Z" fill="white"/>
<path d="M13.5758 22.0211L13.5545 22.2055C13.5169 22.2026 13.4808 22.1892 13.4503 22.1669C13.4199 22.1445 13.3963 22.1141 13.3823 22.079C13.3682 22.044 13.3643 22.0057 13.3709 21.9685C13.3776 21.9313 13.3945 21.8967 13.4198 21.8687L13.5758 22.0211Z" fill="white"/>
<path d="M11.0124 19.0606C11.015 19.083 11.015 19.1056 11.0124 19.128C11.0125 19.1799 11.0019 19.2313 10.9811 19.2789C10.9604 19.3265 10.93 19.3693 10.8919 19.4045L10.626 19.1457L11.0124 19.0606Z" fill="white"/>
<path d="M11.0124 19.0606L10.6331 19.1421L10.899 19.4009C10.8371 19.459 10.7577 19.4948 10.6733 19.5029C10.5889 19.5109 10.5042 19.4907 10.4325 19.4454C10.3608 19.4001 10.3061 19.3323 10.2771 19.2525C10.2482 19.1728 10.2465 19.0858 10.2723 19.005C10.2982 18.9242 10.3501 18.8543 10.42 18.8062C10.4898 18.7581 10.5737 18.7346 10.6584 18.7394C10.7431 18.7441 10.8238 18.7768 10.8879 18.8324C10.9519 18.888 10.9958 18.9632 11.0124 19.0464V19.0606Z" fill="white"/>
<path d="M8.24695 10.4487C8.24695 10.4487 11.8917 19.6492 17.6566 20.1703C17.7169 20.1703 17.7772 20.1703 17.8374 20.1703C21.2766 20.3724 23.1557 21.3758 24.4143 22.3898C24.9595 22.8579 25.4768 23.3575 25.9637 23.886C26.1161 24.042 26.2615 24.1803 26.4068 24.3008" stroke="white" stroke-width="0.25" stroke-linejoin="round"/>
<path d="M13.7673 21.9396L17.3943 20.3583L17.7878 20.1881" stroke="white" stroke-width="0.25" stroke-linejoin="round"/>
<path d="M13.1397 25.9034L13.5545 22.2054" stroke="white" stroke-width="0.25" stroke-linejoin="round"/>
<path d="M10.9025 19.4045L13.4197 21.8686" stroke="white" stroke-width="0.25" stroke-linejoin="round"/>
<path d="M13.7389 18.4686L11.0124 19.0607" stroke="white" stroke-width="0.25" stroke-linejoin="round"/>
<path d="M2.15227 7.05564C2.31283 7.05564 2.443 6.92548 2.443 6.76491C2.443 6.60435 2.31283 6.47418 2.15227 6.47418C1.9917 6.47418 1.86154 6.60435 1.86154 6.76491C1.86154 6.92548 1.9917 7.05564 2.15227 7.05564Z" fill="white"/>
<path d="M13.1397 26.2154C13.3101 26.2154 13.4482 26.0773 13.4482 25.907C13.4482 25.7366 13.3101 25.5985 13.1397 25.5985C12.9693 25.5985 12.8312 25.7366 12.8312 25.907C12.8312 26.0773 12.9693 26.2154 13.1397 26.2154Z" fill="white"/>
<path d="M26.4988 24.4616C26.5791 24.3813 26.5791 24.2511 26.4988 24.1708C26.4185 24.0905 26.2883 24.0905 26.208 24.1708C26.1277 24.2511 26.1277 24.3813 26.208 24.4616C26.2883 24.5419 26.4185 24.5419 26.4988 24.4616Z" fill="white"/>
<path d="M18.1424 12.654L1 1L7.61939 12.3845C7.61939 12.3845 2.2551 29.1652 11.1826 35.54L12.31 38.1672H22.0105L27.1372 34.6642L29.775 38.4614L32.4625 34.5614L37.5325 38.1778H47.2329L48.3604 35.5506C48.3604 35.5506 57.1106 31.4769 51.9555 12.381L58.5714 1L41.429 12.654L29.7892 11.2145L18.1424 12.654Z" stroke="white" stroke-width="0.25" stroke-linejoin="round"/>
<path d="M18.1424 12.6362L29.7821 29.2184L41.429 12.6362L29.7892 11.1968L18.1424 12.6362Z" stroke="white" stroke-width="0.25" stroke-linejoin="round"/>
<path d="M29.7822 29.2184L32.4767 34.5508L34.6076 32.4731L37.1745 29.2184" stroke="white" stroke-width="0.25" stroke-linejoin="round"/>
<path d="M1 1L23.964 20.9291L29.775 18.0856L35.6002 20.9255L58.5714 1" stroke="white" stroke-width="0.25" stroke-linejoin="round"/>
<path d="M7.61938 12.381L8.19375 10.4487L10.6366 19.1457L9.00921 26.2792L12.388 34.1005L14.4515 38.1672V34.9762L16.3909 30.4168L13.1397 25.9034L9.00921 26.2792" stroke="white" stroke-width="0.25" stroke-linejoin="round"/>
<path d="M16.3909 30.4168L22.4005 29.2184L26.3537 24.315L24.9638 32.4731L14.4515 34.9762L12.388 34.1005L11.2003 35.54" stroke="white" stroke-width="0.25" stroke-linejoin="round"/>
<path d="M22.0247 38.1672L24.9639 32.4731L22.4005 29.2184" stroke="white" stroke-width="0.25" stroke-linejoin="round"/>
<path d="M24.9638 32.4731L27.1549 34.6642L29.7821 29.2184L29.7892 11.1968" stroke="white" stroke-width="0.25" stroke-linejoin="round"/>
<path d="M51.9519 12.381L51.3776 10.4487L48.9348 19.1457L45.9956 22.0246L46.4352 25.9034L43.1804 30.4168L37.1744 29.2184L33.2 24.3079L34.6075 32.4731L37.5467 38.1672" stroke="white" stroke-width="0.25" stroke-linejoin="round"/>
<path d="M34.6075 32.4731L45.1198 34.9762L47.1833 34.1005L50.5621 26.2792L48.9347 19.1457L45.836 18.465" stroke="white" stroke-width="0.25" stroke-linejoin="round"/>
<path d="M46.4352 25.9034L50.5621 26.2792H53.3843" stroke="white" stroke-width="0.25" stroke-linejoin="round"/>
<path d="M43.1805 30.4167L45.1199 34.9762V38.1671L47.1833 34.1005L48.3746 35.54" stroke="white" stroke-width="0.25" stroke-linejoin="round"/>
<path d="M41.7729 20.181C42.4944 20.6583 43.0644 21.3319 43.4157 22.1224C43.7671 22.9129 43.8853 23.7874 43.7562 24.6428C43.6272 25.4982 43.2563 26.2989 42.6874 26.9505C42.1184 27.6022 41.3751 28.0777 40.5449 28.3209C39.7148 28.5642 38.8324 28.5651 38.0017 28.3235C37.171 28.082 36.4267 27.6081 35.8564 26.9576C35.2861 26.3071 34.9136 25.5072 34.7828 24.6521C34.652 23.7969 34.7683 22.9222 35.118 22.131C36.0239 21.35 37.0865 20.7718 38.2343 20.4355C39.3822 20.0991 40.5887 20.0124 41.7729 20.181ZM41.5212 23.964C41.5226 23.3995 41.3112 22.8551 40.9291 22.4395C40.8543 22.293 40.728 22.1794 40.5745 22.1204C40.1619 21.8305 39.6639 21.6876 39.1604 21.7145C38.6568 21.7414 38.1769 21.9365 37.7975 22.2687C37.4181 22.6008 37.1611 23.0507 37.0679 23.5463C36.9746 24.0418 37.0504 24.5544 37.2832 25.0017C37.5159 25.449 37.892 25.8053 38.3514 26.0134C38.8107 26.2215 39.3266 26.2694 39.8163 26.1493C40.3061 26.0293 40.7414 25.7483 41.0524 25.3514C41.3635 24.9546 41.5323 24.4647 41.5318 23.9605L41.5212 23.964Z" fill="url(#paint2_linear)"/>
<path d="M41.0035 22.7444C41.0038 22.6382 40.9782 22.5336 40.9291 22.4395C41.315 22.8689 41.5214 23.43 41.5059 24.0072C41.4904 24.5844 41.2541 25.1336 40.8456 25.5417C40.4372 25.9498 39.8878 26.1857 39.3106 26.2007C38.7335 26.2158 38.1725 26.0089 37.7433 25.6226C37.3142 25.2364 37.0495 24.7003 37.0039 24.1247C36.9583 23.5491 37.1352 22.978 37.4982 22.529C37.8612 22.08 38.3826 21.7873 38.9549 21.7113C39.5272 21.6353 40.1069 21.7817 40.5745 22.1204C40.5028 22.0951 40.4273 22.0819 40.3512 22.0814C40.221 22.0821 40.094 22.1212 39.9861 22.194C39.8782 22.2667 39.7943 22.3697 39.7448 22.4901C39.6953 22.6104 39.6826 22.7427 39.7081 22.8703C39.7337 22.9979 39.7964 23.1151 39.8884 23.2071C39.9804 23.2991 40.0976 23.3619 40.2252 23.3874C40.3528 23.413 40.4851 23.4002 40.6055 23.3507C40.7258 23.3013 40.8288 23.2173 40.9016 23.1094C40.9743 23.0015 41.0135 22.8745 41.0142 22.7444H41.0035Z" fill="#0D3B66"/>
<path d="M40.9291 22.4394C40.9964 22.5676 41.02 22.7142 40.9962 22.857C40.9723 22.9998 40.9024 23.1308 40.7972 23.2302C40.6919 23.3295 40.5569 23.3916 40.413 23.4071C40.2691 23.4226 40.1241 23.3905 40.0001 23.3158C39.8761 23.2411 39.7799 23.1279 39.7263 22.9934C39.6727 22.859 39.6646 22.7107 39.7032 22.5712C39.7418 22.4316 39.825 22.3086 39.94 22.2208C40.0551 22.133 40.1958 22.0853 40.3405 22.0849C40.4166 22.0855 40.4921 22.0986 40.5639 22.1239C40.6963 22.2161 40.8187 22.3218 40.9291 22.4394Z" fill="#F1F1F1"/>
<path d="M40.9291 22.4395C40.8222 22.3212 40.7034 22.2142 40.5745 22.1204C40.728 22.1793 40.8543 22.293 40.9291 22.4395Z" fill="#F1F1F1"/>
<path d="M33.2532 24.3079C33.2532 24.3079 33.3276 24.1732 33.4765 23.9534C33.9404 23.2767 34.4924 22.6651 35.1181 22.1345C36.024 21.3535 37.0865 20.7753 38.2344 20.439C39.3822 20.1027 40.5888 20.0159 41.7729 20.1845H41.8368C47.0061 19.9363 50.5338 12.4412 51.328 10.6118" stroke="white" stroke-width="0.25" stroke-linejoin="round"/>
<path d="M45.9956 22.0247L41.7871 20.1881" stroke="white" stroke-width="0.25" stroke-linejoin="round"/>
<path d="M4.11291 19.3478C4.43012 19.3478 4.68727 19.0907 4.68727 18.7735C4.68727 18.4562 4.43012 18.1991 4.11291 18.1991C3.79569 18.1991 3.53854 18.4562 3.53854 18.7735C3.53854 19.0907 3.79569 19.3478 4.11291 19.3478Z" fill="white"/>
<path d="M14.7103 9.95586C15.0941 9.95586 15.4052 9.64474 15.4052 9.26095C15.4052 8.87716 15.0941 8.56604 14.7103 8.56604C14.3265 8.56604 14.0154 8.87716 14.0154 9.26095C14.0154 9.64474 14.3265 9.95586 14.7103 9.95586Z" fill="white"/>
<path d="M55.3946 19.3549C55.7373 19.3549 56.0151 19.0771 56.0151 18.7344C56.0151 18.3917 55.7373 18.114 55.3946 18.114C55.052 18.114 54.7742 18.3917 54.7742 18.7344C54.7742 19.0771 55.052 19.3549 55.3946 19.3549Z" fill="white"/>
<path d="M29.7998 30.1898C30.3442 30.1898 30.7855 29.7486 30.7855 29.2042C30.7855 28.6599 30.3442 28.2186 29.7998 28.2186C29.2555 28.2186 28.8142 28.6599 28.8142 29.2042C28.8142 29.7486 29.2555 30.1898 29.7998 30.1898Z" fill="white"/>
<path d="M53.2035 39.4684C53.4659 39.4684 53.6786 39.2557 53.6786 38.9933C53.6786 38.7309 53.4659 38.5182 53.2035 38.5182C52.9412 38.5182 52.7285 38.7309 52.7285 38.9933C52.7285 39.2557 52.9412 39.4684 53.2035 39.4684Z" fill="white"/>
<path d="M7.65127 37.0574C7.91366 37.0574 8.12637 36.8447 8.12637 36.5823C8.12637 36.3199 7.91366 36.1072 7.65127 36.1072C7.38888 36.1072 7.17618 36.3199 7.17618 36.5823C7.17618 36.8447 7.38888 37.0574 7.65127 37.0574Z" fill="white"/>
<path d="M43.2443 30.5976C43.4303 30.5976 43.5811 30.4468 43.5811 30.2608C43.5811 30.0748 43.4303 29.924 43.2443 29.924C43.0583 29.924 42.9075 30.0748 42.9075 30.2608C42.9075 30.4468 43.0583 30.5976 43.2443 30.5976Z" fill="white"/>
<path d="M50.431 40.4504C50.7325 40.4504 50.9769 40.206 50.9769 39.9044C50.9769 39.6029 50.7325 39.3584 50.431 39.3584C50.1294 39.3584 49.8849 39.6029 49.8849 39.9044C49.8849 40.206 50.1294 40.4504 50.431 40.4504Z" fill="white"/>
<path d="M17.6141 41C17.9156 41 18.1601 40.7556 18.1601 40.454C18.1601 40.1525 17.9156 39.908 17.6141 39.908C17.3125 39.908 17.0681 40.1525 17.0681 40.454C17.0681 40.7556 17.3125 41 17.6141 41Z" fill="white"/>
<path d="M22.0495 38.628C22.3118 38.628 22.5246 38.4153 22.5246 38.1529C22.5246 37.8906 22.3118 37.6779 22.0495 37.6779C21.7871 37.6779 21.5744 37.8906 21.5744 38.1529C21.5744 38.4153 21.7871 38.628 22.0495 38.628Z" fill="white"/>
<path d="M29.7857 18.7487C30.1479 18.7487 30.4416 18.455 30.4416 18.0927C30.4416 17.7305 30.1479 17.4368 29.7857 17.4368C29.4234 17.4368 29.1298 17.7305 29.1298 18.0927C29.1298 18.455 29.4234 18.7487 29.7857 18.7487Z" fill="white"/>
<path d="M37.5468 38.7096C37.8483 38.7096 38.0928 38.4652 38.0928 38.1636C38.0928 37.8621 37.8483 37.6176 37.5468 37.6176C37.2452 37.6176 37.0008 37.8621 37.0008 38.1636C37.0008 38.4652 37.2452 38.7096 37.5468 38.7096Z" fill="white"/>
<path d="M51.6329 22.8224C51.7934 22.8224 51.9236 22.6922 51.9236 22.5316C51.9236 22.3711 51.7934 22.2409 51.6329 22.2409C51.4723 22.2409 51.3421 22.3711 51.3421 22.5316C51.3421 22.6922 51.4723 22.8224 51.6329 22.8224Z" fill="white"/>
<path d="M55.2386 9.7963C55.3992 9.7963 55.5294 9.66614 55.5294 9.50557C55.5294 9.34501 55.3992 9.21484 55.2386 9.21484C55.0781 9.21484 54.9479 9.34501 54.9479 9.50557C54.9479 9.66614 55.0781 9.7963 55.2386 9.7963Z" fill="white"/>
<path d="M47.4065 34.2724C47.4764 34.1278 47.4157 33.954 47.2711 33.8841C47.1265 33.8143 46.9527 33.875 46.8829 34.0196C46.8131 34.1642 46.8737 34.338 47.0183 34.4078C47.1629 34.4776 47.3367 34.417 47.4065 34.2724Z" fill="white"/>
<path d="M45.4066 35.0875C45.4764 34.9429 45.4158 34.7691 45.2712 34.6993C45.1266 34.6295 44.9528 34.6901 44.883 34.8347C44.8132 34.9793 44.8738 35.1531 45.0184 35.223C45.163 35.2928 45.3368 35.2321 45.4066 35.0875Z" fill="white"/>
<path d="M14.7593 35.0886C14.8291 34.944 14.7685 34.7702 14.6239 34.7004C14.4793 34.6306 14.3055 34.6912 14.2357 34.8358C14.1659 34.9804 14.2265 35.1542 14.3711 35.2241C14.5157 35.2939 14.6895 35.2332 14.7593 35.0886Z" fill="white"/>
<path d="M1.95728 26.9847C2.17854 26.9847 2.35792 26.8054 2.35792 26.5841C2.35792 26.3628 2.17854 26.1835 1.95728 26.1835C1.73601 26.1835 1.55664 26.3628 1.55664 26.5841C1.55664 26.8054 1.73601 26.9847 1.95728 26.9847Z" fill="white"/>
<path d="M56.0151 27.8605C56.2364 27.8605 56.4157 27.6811 56.4157 27.4598C56.4157 27.2386 56.2364 27.0592 56.0151 27.0592C55.7938 27.0592 55.6145 27.2386 55.6145 27.4598C55.6145 27.6811 55.7938 27.8605 56.0151 27.8605Z" fill="white"/>
<path d="M37.88 10.0161C38.1012 10.0161 38.2806 9.83675 38.2806 9.61548C38.2806 9.39422 38.1012 9.21484 37.88 9.21484C37.6587 9.21484 37.4793 9.39422 37.4793 9.61548C37.4793 9.83675 37.6587 10.0161 37.88 10.0161Z" fill="white"/>
<path d="M48.9383 19.5535C49.1596 19.5535 49.339 19.3741 49.339 19.1528C49.339 18.9316 49.1596 18.7522 48.9383 18.7522C48.7171 18.7522 48.5377 18.9316 48.5377 19.1528C48.5377 19.3741 48.7171 19.5535 48.9383 19.5535Z" fill="white"/>
<path d="M19.9151 32.5299C20.0757 32.5299 20.2058 32.3997 20.2058 32.2392C20.2058 32.0786 20.0757 31.9484 19.9151 31.9484C19.7545 31.9484 19.6244 32.0786 19.6244 32.2392C19.6244 32.3997 19.7545 32.5299 19.9151 32.5299Z" fill="white"/>
<path d="M40.3406 32.4448C40.4542 32.4448 40.5462 32.3527 40.5462 32.2391C40.5462 32.1256 40.4542 32.0335 40.3406 32.0335C40.227 32.0335 40.1349 32.1256 40.1349 32.2391C40.1349 32.3527 40.227 32.4448 40.3406 32.4448Z" fill="white"/>
<path d="M12.42 34.5649C12.6608 34.5649 12.8561 34.3697 12.8561 34.1288C12.8561 33.888 12.6608 33.6927 12.42 33.6927C12.1791 33.6927 11.9839 33.888 11.9839 34.1288C11.9839 34.3697 12.1791 34.5649 12.42 34.5649Z" fill="white"/>
<path d="M26.1941 39.7591C26.3547 39.7591 26.4849 39.6289 26.4849 39.4683C26.4849 39.3078 26.3547 39.1776 26.1941 39.1776C26.0336 39.1776 25.9034 39.3078 25.9034 39.4683C25.9034 39.6289 26.0336 39.7591 26.1941 39.7591Z" fill="white"/>
<path d="M25.3645 10.4841C25.525 10.4841 25.6552 10.3539 25.6552 10.1934C25.6552 10.0328 25.525 9.90265 25.3645 9.90265C25.2039 9.90265 25.0737 10.0328 25.0737 10.1934C25.0737 10.3539 25.2039 10.4841 25.3645 10.4841Z" fill="white"/>
<path d="M33.4943 39.7945C33.6548 39.7945 33.785 39.6644 33.785 39.5038C33.785 39.3432 33.6548 39.2131 33.4943 39.2131C33.3337 39.2131 33.2036 39.3432 33.2036 39.5038C33.2036 39.6644 33.3337 39.7945 33.4943 39.7945Z" fill="white"/>
<path d="M24.9709 32.6469C25.0845 32.6469 25.1765 32.5548 25.1765 32.4412C25.1765 32.3277 25.0845 32.2356 24.9709 32.2356C24.8573 32.2356 24.7653 32.3277 24.7653 32.4412C24.7653 32.5548 24.8573 32.6469 24.9709 32.6469Z" fill="white"/>
<path d="M27.1408 34.8309C27.2543 34.8309 27.3464 34.7388 27.3464 34.6253C27.3464 34.5117 27.2543 34.4196 27.1408 34.4196C27.0272 34.4196 26.9351 34.5117 26.9351 34.6253C26.9351 34.7388 27.0272 34.8309 27.1408 34.8309Z" fill="white"/>
<path d="M32.4837 34.7741C32.5973 34.7741 32.6894 34.6821 32.6894 34.5685C32.6894 34.4549 32.5973 34.3629 32.4837 34.3629C32.3702 34.3629 32.2781 34.4549 32.2781 34.5685C32.2781 34.6821 32.3702 34.7741 32.4837 34.7741Z" fill="white"/>
<path d="M16.5289 30.5449C16.6092 30.4646 16.6092 30.3344 16.5289 30.2541C16.4486 30.1738 16.3184 30.1738 16.2381 30.2541C16.1578 30.3344 16.1578 30.4646 16.2381 30.5449C16.3184 30.6252 16.4486 30.6252 16.5289 30.5449Z" fill="white"/>
<path d="M22.4951 29.3538C22.5754 29.2735 22.5754 29.1433 22.4951 29.063C22.4148 28.9827 22.2846 28.9827 22.2043 29.063C22.124 29.1433 22.124 29.2735 22.2043 29.3538C22.2846 29.4341 22.4148 29.4341 22.4951 29.3538Z" fill="white"/>
<path d="M33.4379 24.537C33.5597 24.4151 33.5597 24.2176 33.4379 24.0957C33.316 23.9739 33.1185 23.9739 32.9966 24.0957C32.8748 24.2176 32.8748 24.4151 32.9966 24.537C33.1185 24.6588 33.316 24.6588 33.4379 24.537Z" fill="white"/>
<path d="M45.9956 22.209C46.1091 22.209 46.2012 22.1169 46.2012 22.0034C46.2012 21.8898 46.1091 21.7977 45.9956 21.7977C45.882 21.7977 45.7899 21.8898 45.7899 22.0034C45.7899 22.1169 45.882 22.209 45.9956 22.209Z" fill="white"/>
<path d="M46.4423 26.1267C46.5558 26.1267 46.6479 26.0347 46.6479 25.9211C46.6479 25.8075 46.5558 25.7155 46.4423 25.7155C46.3287 25.7155 46.2366 25.8075 46.2366 25.9211C46.2366 26.0347 46.3287 26.1267 46.4423 26.1267Z" fill="white"/>
<path d="M34.6182 32.693C34.7317 32.693 34.8238 32.6009 34.8238 32.4873C34.8238 32.3737 34.7317 32.2817 34.6182 32.2817C34.5046 32.2817 34.4125 32.3737 34.4125 32.4873C34.4125 32.6009 34.5046 32.693 34.6182 32.693Z" fill="white"/>
<path d="M37.1709 29.6829C37.4274 29.6829 37.6353 29.4749 37.6353 29.2184C37.6353 28.9619 37.4274 28.754 37.1709 28.754C36.9144 28.754 36.7064 28.9619 36.7064 29.2184C36.7064 29.4749 36.9144 29.6829 37.1709 29.6829Z" fill="white"/>
<path d="M34.487 20.1137C34.6475 20.1137 34.7777 19.9835 34.7777 19.823C34.7777 19.6624 34.6475 19.5322 34.487 19.5322C34.3264 19.5322 34.1962 19.6624 34.1962 19.823C34.1962 19.9835 34.3264 20.1137 34.487 20.1137Z" fill="white"/>
<path d="M7.36056 28.0413C7.52112 28.0413 7.65128 27.9111 7.65128 27.7506C7.65128 27.59 7.52112 27.4598 7.36056 27.4598C7.19999 27.4598 7.06982 27.59 7.06982 27.7506C7.06982 27.9111 7.19999 28.0413 7.36056 28.0413Z" fill="white"/>
<path d="M9.04115 26.499C9.15472 26.499 9.24678 26.407 9.24678 26.2934C9.24678 26.1798 9.15472 26.0878 9.04115 26.0878C8.92758 26.0878 8.83551 26.1798 8.83551 26.2934C8.83551 26.407 8.92758 26.499 9.04115 26.499Z" fill="white"/>
<path d="M50.4983 26.5841C50.6589 26.5841 50.7891 26.4539 50.7891 26.2934C50.7891 26.1328 50.6589 26.0026 50.4983 26.0026C50.3378 26.0026 50.2076 26.1328 50.2076 26.2934C50.2076 26.4539 50.3378 26.5841 50.4983 26.5841Z" fill="white"/>
<path d="M17.3943 20.3583C17.4794 20.2909 17.5645 20.2306 17.6566 20.1703C17.7169 20.1703 17.7772 20.1703 17.8375 20.1703C21.2766 20.3724 23.1557 21.3758 24.4143 22.3898C24.7019 23.1781 24.7654 24.0307 24.5976 24.8528C24.4299 25.675 24.0374 26.4345 23.464 27.0471C22.8905 27.6596 22.1584 28.1012 21.3491 28.3227C20.5397 28.5442 19.6848 28.537 18.8793 28.3018C18.0739 28.0667 17.3493 27.6128 16.7863 26.9907C16.2232 26.3686 15.8437 25.6025 15.6898 24.7776C15.5359 23.9528 15.6138 23.1014 15.9147 22.3181C16.2156 21.5348 16.7277 20.8503 17.3943 20.3405V20.3583ZM22.404 23.9605C22.4075 23.3979 22.1986 22.8547 21.819 22.4394C21.7442 22.293 21.618 22.1793 21.4645 22.1204C21.0518 21.8305 20.5539 21.6876 20.0503 21.7145C19.5468 21.7414 19.0668 21.9365 18.6874 22.2687C18.308 22.6008 18.0511 23.0507 17.9578 23.5463C17.8646 24.0418 17.9404 24.5543 18.1731 25.0017C18.4058 25.449 18.782 25.8053 19.2413 26.0134C19.7006 26.2215 20.2165 26.2693 20.7063 26.1493C21.196 26.0293 21.6313 25.7483 21.9424 25.3514C22.2534 24.9545 22.4222 24.4647 22.4217 23.9605H22.404Z" fill="url(#paint3_linear)"/>
<path d="M21.8829 22.7444C21.8831 22.6382 21.8575 22.5336 21.8084 22.4395C22.1943 22.8689 22.4008 23.43 22.3853 24.0072C22.3697 24.5844 22.1334 25.1336 21.725 25.5417C21.3166 25.9498 20.7671 26.1857 20.19 26.2007C19.6128 26.2158 19.0518 26.0089 18.6227 25.6226C18.1935 25.2364 17.9289 24.7003 17.8833 24.1247C17.8377 23.5491 18.0146 22.978 18.3775 22.529C18.7405 22.08 19.2619 21.7873 19.8342 21.7113C20.4066 21.6353 20.9863 21.7817 21.4539 22.1204C21.3821 22.0951 21.3066 22.0819 21.2305 22.0814C21.1004 22.0821 20.9734 22.1212 20.8655 22.194C20.7576 22.2667 20.6736 22.3697 20.6241 22.4901C20.5747 22.6104 20.5619 22.7427 20.5875 22.8703C20.613 22.9979 20.6757 23.1151 20.7678 23.2071C20.8598 23.2991 20.9769 23.3619 21.1045 23.3874C21.2321 23.413 21.3644 23.4002 21.4848 23.3507C21.6051 23.3013 21.7082 23.2173 21.7809 23.1094C21.8536 23.0015 21.8928 22.8745 21.8935 22.7444H21.8829Z" fill="#0D3B66"/>
<path d="M21.819 22.4394C21.8855 22.5669 21.9085 22.7127 21.8845 22.8545C21.8604 22.9962 21.7908 23.1263 21.686 23.2248C21.5812 23.3233 21.4472 23.3848 21.3042 23.4001C21.1612 23.4153 21.0171 23.3834 20.894 23.3092C20.7708 23.235 20.6753 23.1226 20.6219 22.9891C20.5685 22.8556 20.5603 22.7082 20.5984 22.5696C20.6365 22.4309 20.7189 22.3085 20.833 22.221C20.9471 22.1335 21.0867 22.0857 21.2304 22.0849C21.3065 22.0855 21.382 22.0986 21.4538 22.1239C21.5867 22.2155 21.7091 22.3213 21.819 22.4394Z" fill="#F1F1F1"/>
<path d="M21.819 22.4395C21.7127 22.3206 21.5938 22.2136 21.4644 22.1204C21.6179 22.1793 21.7442 22.293 21.819 22.4395Z" fill="#F1F1F1"/>
<path d="M13.7708 21.9396C13.7753 21.9606 13.7753 21.9824 13.7708 22.0034C13.7708 22.0579 13.7492 22.1102 13.7106 22.1488C13.672 22.1874 13.6197 22.209 13.5652 22.209H13.5475L13.5687 22.0247L13.7708 21.9396Z" fill="white"/>
<path d="M13.7708 21.9395L13.5793 22.0211L13.4233 21.8686C13.4418 21.845 13.4655 21.8261 13.4926 21.8131C13.5197 21.8002 13.5493 21.7937 13.5793 21.7941C13.6226 21.7947 13.6645 21.8091 13.699 21.8353C13.7335 21.8614 13.7586 21.898 13.7708 21.9395Z" fill="white"/>
<path d="M13.5758 22.0211L13.5545 22.2055C13.5169 22.2026 13.4808 22.1892 13.4503 22.1669C13.4199 22.1445 13.3963 22.1141 13.3823 22.079C13.3682 22.044 13.3643 22.0057 13.3709 21.9685C13.3776 21.9313 13.3945 21.8967 13.4198 21.8687L13.5758 22.0211Z" fill="white"/>
<path d="M11.0124 19.0606C11.015 19.083 11.015 19.1056 11.0124 19.128C11.0125 19.1799 11.0019 19.2313 10.9811 19.2789C10.9604 19.3265 10.93 19.3693 10.8919 19.4045L10.626 19.1457L11.0124 19.0606Z" fill="white"/>
<path d="M11.0124 19.0606L10.6331 19.1421L10.899 19.4009C10.8371 19.459 10.7577 19.4948 10.6733 19.5029C10.5889 19.5109 10.5042 19.4907 10.4325 19.4454C10.3608 19.4001 10.3061 19.3323 10.2771 19.2525C10.2482 19.1728 10.2465 19.0858 10.2723 19.005C10.2982 18.9242 10.3501 18.8543 10.42 18.8062C10.4898 18.7581 10.5737 18.7346 10.6584 18.7394C10.7431 18.7441 10.8238 18.7768 10.8879 18.8324C10.9519 18.888 10.9958 18.9632 11.0124 19.0464V19.0606Z" fill="white"/>
<path d="M8.24695 10.4487C8.24695 10.4487 11.8917 19.6492 17.6566 20.1703C17.7169 20.1703 17.7772 20.1703 17.8374 20.1703C21.2766 20.3724 23.1557 21.3758 24.4143 22.3898C24.9595 22.8579 25.4768 23.3575 25.9637 23.886C26.1161 24.042 26.2615 24.1803 26.4068 24.3008" stroke="white" stroke-width="0.25" stroke-linejoin="round"/>
<path d="M13.7673 21.9396L17.3943 20.3583L17.7878 20.1881" stroke="white" stroke-width="0.25" stroke-linejoin="round"/>
<path d="M13.1397 25.9034L13.5545 22.2054" stroke="white" stroke-width="0.25" stroke-linejoin="round"/>
<path d="M10.9025 19.4045L13.4197 21.8686" stroke="white" stroke-width="0.25" stroke-linejoin="round"/>
<path d="M13.7389 18.4686L11.0124 19.0607" stroke="white" stroke-width="0.25" stroke-linejoin="round"/>
<path d="M2.15227 7.05564C2.31283 7.05564 2.443 6.92548 2.443 6.76491C2.443 6.60435 2.31283 6.47418 2.15227 6.47418C1.9917 6.47418 1.86154 6.60435 1.86154 6.76491C1.86154 6.92548 1.9917 7.05564 2.15227 7.05564Z" fill="white"/>
<path d="M13.1397 26.2154C13.3101 26.2154 13.4482 26.0773 13.4482 25.907C13.4482 25.7366 13.3101 25.5985 13.1397 25.5985C12.9693 25.5985 12.8312 25.7366 12.8312 25.907C12.8312 26.0773 12.9693 26.2154 13.1397 26.2154Z" fill="white"/>
<path d="M26.4988 24.4616C26.5791 24.3813 26.5791 24.2511 26.4988 24.1708C26.4185 24.0905 26.2883 24.0905 26.208 24.1708C26.1277 24.2511 26.1277 24.3813 26.208 24.4616C26.2883 24.5419 26.4185 24.5419 26.4988 24.4616Z" fill="white"/>
<path d="M18.1424 12.654L1 1L7.61939 12.3845C7.61939 12.3845 2.2551 29.1652 11.1826 35.54L12.31 38.1672H22.0105L27.1372 34.6642L29.775 38.4614L32.4625 34.5614L37.5325 38.1778H47.2329L48.3604 35.5506C48.3604 35.5506 57.1106 31.4769 51.9555 12.381L58.5714 1L41.429 12.654L29.7892 11.2145L18.1424 12.654Z" stroke="white" stroke-width="0.25" stroke-linejoin="round"/>
<path d="M18.1424 12.6362L29.7821 29.2184L41.429 12.6362L29.7892 11.1968L18.1424 12.6362Z" stroke="white" stroke-width="0.25" stroke-linejoin="round"/>
<path d="M29.7822 29.2184L32.4767 34.5508L34.6076 32.4731L37.1745 29.2184" stroke="white" stroke-width="0.25" stroke-linejoin="round"/>
<path d="M1 1L23.964 20.9291L29.775 18.0856L35.6002 20.9255L58.5714 1" stroke="white" stroke-width="0.25" stroke-linejoin="round"/>
<path d="M7.61938 12.381L8.19375 10.4487L10.6366 19.1457L9.00921 26.2792L12.388 34.1005L14.4515 38.1672V34.9762L16.3909 30.4168L13.1397 25.9034L9.00921 26.2792" stroke="white" stroke-width="0.25" stroke-linejoin="round"/>
<path d="M16.3909 30.4168L22.4005 29.2184L26.3537 24.315L24.9638 32.4731L14.4515 34.9762L12.388 34.1005L11.2003 35.54" stroke="white" stroke-width="0.25" stroke-linejoin="round"/>
<path d="M22.0247 38.1672L24.9639 32.4731L22.4005 29.2184" stroke="white" stroke-width="0.25" stroke-linejoin="round"/>
<path d="M24.9638 32.4731L27.1549 34.6642L29.7821 29.2184L29.7892 11.1968" stroke="white" stroke-width="0.25" stroke-linejoin="round"/>
<path d="M51.9519 12.381L51.3776 10.4487L48.9348 19.1457L45.9956 22.0246L46.4352 25.9034L43.1804 30.4168L37.1744 29.2184L33.2 24.3079L34.6075 32.4731L37.5467 38.1672" stroke="white" stroke-width="0.25" stroke-linejoin="round"/>
<path d="M34.6075 32.4731L45.1198 34.9762L47.1833 34.1005L50.5621 26.2792L48.9347 19.1457L45.836 18.465" stroke="white" stroke-width="0.25" stroke-linejoin="round"/>
<path d="M46.4352 25.9034L50.5621 26.2792H53.3843" stroke="white" stroke-width="0.25" stroke-linejoin="round"/>
<path d="M43.1805 30.4167L45.1199 34.9762V38.1671L47.1833 34.1005L48.3746 35.54" stroke="white" stroke-width="0.25" stroke-linejoin="round"/>
<path d="M41.7729 20.181C42.4944 20.6583 43.0644 21.3319 43.4157 22.1224C43.7671 22.9129 43.8853 23.7874 43.7562 24.6428C43.6272 25.4982 43.2563 26.2989 42.6874 26.9505C42.1184 27.6022 41.3751 28.0777 40.5449 28.3209C39.7148 28.5642 38.8324 28.5651 38.0017 28.3235C37.171 28.082 36.4267 27.6081 35.8564 26.9576C35.2861 26.3071 34.9136 25.5072 34.7828 24.6521C34.652 23.7969 34.7683 22.9222 35.118 22.131C36.0239 21.35 37.0865 20.7718 38.2343 20.4355C39.3822 20.0991 40.5887 20.0124 41.7729 20.181ZM41.5212 23.964C41.5226 23.3995 41.3112 22.8551 40.9291 22.4395C40.8543 22.293 40.728 22.1794 40.5745 22.1204C40.1619 21.8305 39.6639 21.6876 39.1604 21.7145C38.6568 21.7414 38.1769 21.9365 37.7975 22.2687C37.4181 22.6008 37.1611 23.0507 37.0679 23.5463C36.9746 24.0418 37.0504 24.5544 37.2832 25.0017C37.5159 25.449 37.892 25.8053 38.3514 26.0134C38.8107 26.2215 39.3266 26.2694 39.8163 26.1493C40.3061 26.0293 40.7414 25.7483 41.0524 25.3514C41.3635 24.9546 41.5323 24.4647 41.5318 23.9605L41.5212 23.964Z" fill="url(#paint4_linear)"/>
<path d="M41.0035 22.7444C41.0038 22.6382 40.9782 22.5336 40.9291 22.4395C41.315 22.8689 41.5214 23.43 41.5059 24.0072C41.4904 24.5844 41.2541 25.1336 40.8456 25.5417C40.4372 25.9498 39.8878 26.1857 39.3106 26.2007C38.7335 26.2158 38.1725 26.0089 37.7433 25.6226C37.3142 25.2364 37.0495 24.7003 37.0039 24.1247C36.9583 23.5491 37.1352 22.978 37.4982 22.529C37.8612 22.08 38.3826 21.7873 38.9549 21.7113C39.5272 21.6353 40.1069 21.7817 40.5745 22.1204C40.5028 22.0951 40.4273 22.0819 40.3512 22.0814C40.221 22.0821 40.094 22.1212 39.9861 22.194C39.8782 22.2667 39.7943 22.3697 39.7448 22.4901C39.6953 22.6104 39.6826 22.7427 39.7081 22.8703C39.7337 22.9979 39.7964 23.1151 39.8884 23.2071C39.9804 23.2991 40.0976 23.3619 40.2252 23.3874C40.3528 23.413 40.4851 23.4002 40.6055 23.3507C40.7258 23.3013 40.8288 23.2173 40.9016 23.1094C40.9743 23.0015 41.0135 22.8745 41.0142 22.7444H41.0035Z" fill="#0D3B66"/>
<path d="M40.9291 22.4394C40.9964 22.5676 41.02 22.7142 40.9962 22.857C40.9723 22.9998 40.9024 23.1308 40.7972 23.2302C40.6919 23.3295 40.5569 23.3916 40.413 23.4071C40.2691 23.4226 40.1241 23.3905 40.0001 23.3158C39.8761 23.2411 39.7799 23.1279 39.7263 22.9934C39.6727 22.859 39.6646 22.7107 39.7032 22.5712C39.7418 22.4316 39.825 22.3086 39.94 22.2208C40.0551 22.133 40.1958 22.0853 40.3405 22.0849C40.4166 22.0855 40.4921 22.0986 40.5639 22.1239C40.6963 22.2161 40.8187 22.3218 40.9291 22.4394Z" fill="#F1F1F1"/>
<path d="M40.9291 22.4395C40.8222 22.3212 40.7034 22.2142 40.5745 22.1204C40.728 22.1793 40.8543 22.293 40.9291 22.4395Z" fill="#F1F1F1"/>
<path d="M33.2532 24.3079C33.2532 24.3079 33.3276 24.1732 33.4765 23.9534C33.9404 23.2767 34.4924 22.6651 35.1181 22.1345C36.024 21.3535 37.0865 20.7753 38.2344 20.439C39.3822 20.1027 40.5888 20.0159 41.7729 20.1845H41.8368C47.0061 19.9363 50.5338 12.4412 51.328 10.6118" stroke="white" stroke-width="0.25" stroke-linejoin="round"/>
<path d="M45.9956 22.0247L41.7871 20.1881" stroke="white" stroke-width="0.25" stroke-linejoin="round"/>
<path d="M4.11291 19.3478C4.43012 19.3478 4.68727 19.0907 4.68727 18.7735C4.68727 18.4562 4.43012 18.1991 4.11291 18.1991C3.79569 18.1991 3.53854 18.4562 3.53854 18.7735C3.53854 19.0907 3.79569 19.3478 4.11291 19.3478Z" fill="white"/>
<path d="M14.7103 9.95586C15.0941 9.95586 15.4052 9.64474 15.4052 9.26095C15.4052 8.87716 15.0941 8.56604 14.7103 8.56604C14.3265 8.56604 14.0154 8.87716 14.0154 9.26095C14.0154 9.64474 14.3265 9.95586 14.7103 9.95586Z" fill="white"/>
<path d="M55.3946 19.3549C55.7373 19.3549 56.0151 19.0771 56.0151 18.7344C56.0151 18.3917 55.7373 18.114 55.3946 18.114C55.052 18.114 54.7742 18.3917 54.7742 18.7344C54.7742 19.0771 55.052 19.3549 55.3946 19.3549Z" fill="white"/>
<path d="M29.7998 30.1898C30.3442 30.1898 30.7855 29.7486 30.7855 29.2042C30.7855 28.6599 30.3442 28.2186 29.7998 28.2186C29.2555 28.2186 28.8142 28.6599 28.8142 29.2042C28.8142 29.7486 29.2555 30.1898 29.7998 30.1898Z" fill="white"/>
<path d="M53.2035 39.4684C53.4659 39.4684 53.6786 39.2557 53.6786 38.9933C53.6786 38.7309 53.4659 38.5182 53.2035 38.5182C52.9412 38.5182 52.7285 38.7309 52.7285 38.9933C52.7285 39.2557 52.9412 39.4684 53.2035 39.4684Z" fill="white"/>
<path d="M7.65127 37.0574C7.91366 37.0574 8.12637 36.8447 8.12637 36.5823C8.12637 36.3199 7.91366 36.1072 7.65127 36.1072C7.38888 36.1072 7.17618 36.3199 7.17618 36.5823C7.17618 36.8447 7.38888 37.0574 7.65127 37.0574Z" fill="white"/>
<path d="M43.2443 30.5976C43.4303 30.5976 43.5811 30.4468 43.5811 30.2608C43.5811 30.0748 43.4303 29.924 43.2443 29.924C43.0583 29.924 42.9075 30.0748 42.9075 30.2608C42.9075 30.4468 43.0583 30.5976 43.2443 30.5976Z" fill="white"/>
<path d="M50.431 40.4504C50.7325 40.4504 50.9769 40.206 50.9769 39.9044C50.9769 39.6029 50.7325 39.3584 50.431 39.3584C50.1294 39.3584 49.8849 39.6029 49.8849 39.9044C49.8849 40.206 50.1294 40.4504 50.431 40.4504Z" fill="white"/>
<path d="M17.6141 41C17.9156 41 18.1601 40.7556 18.1601 40.454C18.1601 40.1525 17.9156 39.908 17.6141 39.908C17.3125 39.908 17.0681 40.1525 17.0681 40.454C17.0681 40.7556 17.3125 41 17.6141 41Z" fill="white"/>
<path d="M22.0495 38.628C22.3118 38.628 22.5246 38.4153 22.5246 38.1529C22.5246 37.8906 22.3118 37.6779 22.0495 37.6779C21.7871 37.6779 21.5744 37.8906 21.5744 38.1529C21.5744 38.4153 21.7871 38.628 22.0495 38.628Z" fill="white"/>
<path d="M29.7857 18.7487C30.1479 18.7487 30.4416 18.455 30.4416 18.0927C30.4416 17.7305 30.1479 17.4368 29.7857 17.4368C29.4234 17.4368 29.1298 17.7305 29.1298 18.0927C29.1298 18.455 29.4234 18.7487 29.7857 18.7487Z" fill="white"/>
<path d="M37.5468 38.7096C37.8483 38.7096 38.0928 38.4652 38.0928 38.1636C38.0928 37.8621 37.8483 37.6176 37.5468 37.6176C37.2452 37.6176 37.0008 37.8621 37.0008 38.1636C37.0008 38.4652 37.2452 38.7096 37.5468 38.7096Z" fill="white"/>
<path d="M51.6329 22.8224C51.7934 22.8224 51.9236 22.6922 51.9236 22.5316C51.9236 22.3711 51.7934 22.2409 51.6329 22.2409C51.4723 22.2409 51.3421 22.3711 51.3421 22.5316C51.3421 22.6922 51.4723 22.8224 51.6329 22.8224Z" fill="white"/>
<path d="M55.2386 9.7963C55.3992 9.7963 55.5294 9.66614 55.5294 9.50557C55.5294 9.34501 55.3992 9.21484 55.2386 9.21484C55.0781 9.21484 54.9479 9.34501 54.9479 9.50557C54.9479 9.66614 55.0781 9.7963 55.2386 9.7963Z" fill="white"/>
<path d="M47.4065 34.2724C47.4764 34.1278 47.4157 33.954 47.2711 33.8841C47.1265 33.8143 46.9527 33.875 46.8829 34.0196C46.8131 34.1642 46.8737 34.338 47.0183 34.4078C47.1629 34.4776 47.3367 34.417 47.4065 34.2724Z" fill="white"/>
<path d="M45.4066 35.0875C45.4764 34.9429 45.4158 34.7691 45.2712 34.6993C45.1266 34.6295 44.9528 34.6901 44.883 34.8347C44.8132 34.9793 44.8738 35.1531 45.0184 35.223C45.163 35.2928 45.3368 35.2321 45.4066 35.0875Z" fill="white"/>
<path d="M14.7593 35.0886C14.8291 34.944 14.7685 34.7702 14.6239 34.7004C14.4793 34.6306 14.3055 34.6912 14.2357 34.8358C14.1659 34.9804 14.2265 35.1542 14.3711 35.2241C14.5157 35.2939 14.6895 35.2332 14.7593 35.0886Z" fill="white"/>
<path d="M1.95728 26.9847C2.17854 26.9847 2.35792 26.8054 2.35792 26.5841C2.35792 26.3628 2.17854 26.1835 1.95728 26.1835C1.73601 26.1835 1.55664 26.3628 1.55664 26.5841C1.55664 26.8054 1.73601 26.9847 1.95728 26.9847Z" fill="white"/>
<path d="M56.0151 27.8605C56.2364 27.8605 56.4157 27.6811 56.4157 27.4598C56.4157 27.2386 56.2364 27.0592 56.0151 27.0592C55.7938 27.0592 55.6145 27.2386 55.6145 27.4598C55.6145 27.6811 55.7938 27.8605 56.0151 27.8605Z" fill="white"/>
<path d="M37.88 10.0161C38.1012 10.0161 38.2806 9.83675 38.2806 9.61548C38.2806 9.39422 38.1012 9.21484 37.88 9.21484C37.6587 9.21484 37.4793 9.39422 37.4793 9.61548C37.4793 9.83675 37.6587 10.0161 37.88 10.0161Z" fill="white"/>
<path d="M48.9383 19.5535C49.1596 19.5535 49.339 19.3741 49.339 19.1528C49.339 18.9316 49.1596 18.7522 48.9383 18.7522C48.7171 18.7522 48.5377 18.9316 48.5377 19.1528C48.5377 19.3741 48.7171 19.5535 48.9383 19.5535Z" fill="white"/>
<path d="M19.9151 32.5299C20.0757 32.5299 20.2058 32.3997 20.2058 32.2392C20.2058 32.0786 20.0757 31.9484 19.9151 31.9484C19.7545 31.9484 19.6244 32.0786 19.6244 32.2392C19.6244 32.3997 19.7545 32.5299 19.9151 32.5299Z" fill="white"/>
<path d="M40.3406 32.4448C40.4542 32.4448 40.5462 32.3527 40.5462 32.2391C40.5462 32.1256 40.4542 32.0335 40.3406 32.0335C40.227 32.0335 40.1349 32.1256 40.1349 32.2391C40.1349 32.3527 40.227 32.4448 40.3406 32.4448Z" fill="white"/>
<path d="M12.42 34.5649C12.6608 34.5649 12.8561 34.3697 12.8561 34.1288C12.8561 33.888 12.6608 33.6927 12.42 33.6927C12.1791 33.6927 11.9839 33.888 11.9839 34.1288C11.9839 34.3697 12.1791 34.5649 12.42 34.5649Z" fill="white"/>
<path d="M26.1941 39.7591C26.3547 39.7591 26.4849 39.6289 26.4849 39.4683C26.4849 39.3078 26.3547 39.1776 26.1941 39.1776C26.0336 39.1776 25.9034 39.3078 25.9034 39.4683C25.9034 39.6289 26.0336 39.7591 26.1941 39.7591Z" fill="white"/>
<path d="M25.3645 10.4841C25.525 10.4841 25.6552 10.3539 25.6552 10.1934C25.6552 10.0328 25.525 9.90265 25.3645 9.90265C25.2039 9.90265 25.0737 10.0328 25.0737 10.1934C25.0737 10.3539 25.2039 10.4841 25.3645 10.4841Z" fill="white"/>
<path d="M33.4943 39.7945C33.6548 39.7945 33.785 39.6644 33.785 39.5038C33.785 39.3432 33.6548 39.2131 33.4943 39.2131C33.3337 39.2131 33.2036 39.3432 33.2036 39.5038C33.2036 39.6644 33.3337 39.7945 33.4943 39.7945Z" fill="white"/>
<path d="M24.9709 32.6469C25.0845 32.6469 25.1765 32.5548 25.1765 32.4412C25.1765 32.3277 25.0845 32.2356 24.9709 32.2356C24.8573 32.2356 24.7653 32.3277 24.7653 32.4412C24.7653 32.5548 24.8573 32.6469 24.9709 32.6469Z" fill="white"/>
<path d="M27.1408 34.8309C27.2543 34.8309 27.3464 34.7388 27.3464 34.6253C27.3464 34.5117 27.2543 34.4196 27.1408 34.4196C27.0272 34.4196 26.9351 34.5117 26.9351 34.6253C26.9351 34.7388 27.0272 34.8309 27.1408 34.8309Z" fill="white"/>
<path d="M32.4837 34.7741C32.5973 34.7741 32.6894 34.6821 32.6894 34.5685C32.6894 34.4549 32.5973 34.3629 32.4837 34.3629C32.3702 34.3629 32.2781 34.4549 32.2781 34.5685C32.2781 34.6821 32.3702 34.7741 32.4837 34.7741Z" fill="white"/>
<path d="M16.5289 30.5449C16.6092 30.4646 16.6092 30.3344 16.5289 30.2541C16.4486 30.1738 16.3184 30.1738 16.2381 30.2541C16.1578 30.3344 16.1578 30.4646 16.2381 30.5449C16.3184 30.6252 16.4486 30.6252 16.5289 30.5449Z" fill="white"/>
<path d="M22.4951 29.3538C22.5754 29.2735 22.5754 29.1433 22.4951 29.063C22.4148 28.9827 22.2846 28.9827 22.2043 29.063C22.124 29.1433 22.124 29.2735 22.2043 29.3538C22.2846 29.4341 22.4148 29.4341 22.4951 29.3538Z" fill="white"/>
<path d="M33.4379 24.537C33.5597 24.4151 33.5597 24.2176 33.4379 24.0957C33.316 23.9739 33.1185 23.9739 32.9966 24.0957C32.8748 24.2176 32.8748 24.4151 32.9966 24.537C33.1185 24.6588 33.316 24.6588 33.4379 24.537Z" fill="white"/>
<path d="M45.9956 22.209C46.1091 22.209 46.2012 22.1169 46.2012 22.0034C46.2012 21.8898 46.1091 21.7977 45.9956 21.7977C45.882 21.7977 45.7899 21.8898 45.7899 22.0034C45.7899 22.1169 45.882 22.209 45.9956 22.209Z" fill="white"/>
<path d="M46.4423 26.1267C46.5558 26.1267 46.6479 26.0347 46.6479 25.9211C46.6479 25.8075 46.5558 25.7155 46.4423 25.7155C46.3287 25.7155 46.2366 25.8075 46.2366 25.9211C46.2366 26.0347 46.3287 26.1267 46.4423 26.1267Z" fill="white"/>
<path d="M34.6182 32.693C34.7317 32.693 34.8238 32.6009 34.8238 32.4873C34.8238 32.3737 34.7317 32.2817 34.6182 32.2817C34.5046 32.2817 34.4125 32.3737 34.4125 32.4873C34.4125 32.6009 34.5046 32.693 34.6182 32.693Z" fill="white"/>
<path d="M37.1709 29.6829C37.4274 29.6829 37.6353 29.4749 37.6353 29.2184C37.6353 28.9619 37.4274 28.754 37.1709 28.754C36.9144 28.754 36.7064 28.9619 36.7064 29.2184C36.7064 29.4749 36.9144 29.6829 37.1709 29.6829Z" fill="white"/>
<path d="M34.487 20.1137C34.6475 20.1137 34.7777 19.9835 34.7777 19.823C34.7777 19.6624 34.6475 19.5322 34.487 19.5322C34.3264 19.5322 34.1962 19.6624 34.1962 19.823C34.1962 19.9835 34.3264 20.1137 34.487 20.1137Z" fill="white"/>
<path d="M7.36056 28.0413C7.52112 28.0413 7.65128 27.9111 7.65128 27.7506C7.65128 27.59 7.52112 27.4598 7.36056 27.4598C7.19999 27.4598 7.06982 27.59 7.06982 27.7506C7.06982 27.9111 7.19999 28.0413 7.36056 28.0413Z" fill="white"/>
<path d="M9.04115 26.499C9.15472 26.499 9.24678 26.407 9.24678 26.2934C9.24678 26.1798 9.15472 26.0878 9.04115 26.0878C8.92758 26.0878 8.83551 26.1798 8.83551 26.2934C8.83551 26.407 8.92758 26.499 9.04115 26.499Z" fill="white"/>
<path d="M50.4983 26.5841C50.6589 26.5841 50.7891 26.4539 50.7891 26.2934C50.7891 26.1328 50.6589 26.0026 50.4983 26.0026C50.3378 26.0026 50.2076 26.1328 50.2076 26.2934C50.2076 26.4539 50.3378 26.5841 50.4983 26.5841Z" fill="white"/>
<path d="M17.3943 20.3583C17.4794 20.2909 17.5645 20.2306 17.6566 20.1703C17.7169 20.1703 17.7772 20.1703 17.8375 20.1703C21.2766 20.3724 23.1557 21.3758 24.4143 22.3898C24.7019 23.1781 24.7654 24.0307 24.5976 24.8528C24.4299 25.675 24.0374 26.4345 23.464 27.0471C22.8905 27.6596 22.1584 28.1012 21.3491 28.3227C20.5397 28.5442 19.6848 28.537 18.8793 28.3018C18.0739 28.0667 17.3493 27.6128 16.7863 26.9907C16.2232 26.3686 15.8437 25.6025 15.6898 24.7776C15.5359 23.9528 15.6138 23.1014 15.9147 22.3181C16.2156 21.5348 16.7277 20.8503 17.3943 20.3405V20.3583ZM22.404 23.9605C22.4075 23.3979 22.1986 22.8547 21.819 22.4394C21.7442 22.293 21.618 22.1793 21.4645 22.1204C21.0518 21.8305 20.5539 21.6876 20.0503 21.7145C19.5468 21.7414 19.0668 21.9365 18.6874 22.2687C18.308 22.6008 18.0511 23.0507 17.9578 23.5463C17.8646 24.0418 17.9404 24.5543 18.1731 25.0017C18.4058 25.449 18.782 25.8053 19.2413 26.0134C19.7006 26.2215 20.2165 26.2693 20.7063 26.1493C21.196 26.0293 21.6313 25.7483 21.9424 25.3514C22.2534 24.9545 22.4222 24.4647 22.4217 23.9605H22.404Z" fill="url(#paint5_linear)"/>
<path d="M21.8829 22.7444C21.8831 22.6382 21.8575 22.5336 21.8084 22.4395C22.1943 22.8689 22.4008 23.43 22.3853 24.0072C22.3697 24.5844 22.1334 25.1336 21.725 25.5417C21.3166 25.9498 20.7671 26.1857 20.19 26.2007C19.6128 26.2158 19.0518 26.0089 18.6227 25.6226C18.1935 25.2364 17.9289 24.7003 17.8833 24.1247C17.8377 23.5491 18.0146 22.978 18.3775 22.529C18.7405 22.08 19.2619 21.7873 19.8342 21.7113C20.4066 21.6353 20.9863 21.7817 21.4539 22.1204C21.3821 22.0951 21.3066 22.0819 21.2305 22.0814C21.1004 22.0821 20.9734 22.1212 20.8655 22.194C20.7576 22.2667 20.6736 22.3697 20.6241 22.4901C20.5747 22.6104 20.5619 22.7427 20.5875 22.8703C20.613 22.9979 20.6757 23.1151 20.7678 23.2071C20.8598 23.2991 20.9769 23.3619 21.1045 23.3874C21.2321 23.413 21.3644 23.4002 21.4848 23.3507C21.6051 23.3013 21.7082 23.2173 21.7809 23.1094C21.8536 23.0015 21.8928 22.8745 21.8935 22.7444H21.8829Z" fill="#0D3B66"/>
<path d="M21.819 22.4394C21.8855 22.5669 21.9085 22.7127 21.8845 22.8545C21.8604 22.9962 21.7908 23.1263 21.686 23.2248C21.5812 23.3233 21.4472 23.3848 21.3042 23.4001C21.1612 23.4153 21.0171 23.3834 20.894 23.3092C20.7708 23.235 20.6753 23.1226 20.6219 22.9891C20.5685 22.8556 20.5603 22.7082 20.5984 22.5696C20.6365 22.4309 20.7189 22.3085 20.833 22.221C20.9471 22.1335 21.0867 22.0857 21.2304 22.0849C21.3065 22.0855 21.382 22.0986 21.4538 22.1239C21.5867 22.2155 21.7091 22.3213 21.819 22.4394Z" fill="#F1F1F1"/>
<path d="M21.819 22.4395C21.7127 22.3206 21.5938 22.2136 21.4644 22.1204C21.6179 22.1793 21.7442 22.293 21.819 22.4395Z" fill="#F1F1F1"/>
<path d="M13.7708 21.9396C13.7753 21.9606 13.7753 21.9824 13.7708 22.0034C13.7708 22.0579 13.7492 22.1102 13.7106 22.1488C13.672 22.1874 13.6197 22.209 13.5652 22.209H13.5475L13.5687 22.0247L13.7708 21.9396Z" fill="white"/>
<path d="M13.7708 21.9395L13.5793 22.0211L13.4233 21.8686C13.4418 21.845 13.4655 21.8261 13.4926 21.8131C13.5197 21.8002 13.5493 21.7937 13.5793 21.7941C13.6226 21.7947 13.6645 21.8091 13.699 21.8353C13.7335 21.8614 13.7586 21.898 13.7708 21.9395Z" fill="white"/>
<path d="M13.5758 22.0211L13.5545 22.2055C13.5169 22.2026 13.4808 22.1892 13.4503 22.1669C13.4199 22.1445 13.3963 22.1141 13.3823 22.079C13.3682 22.044 13.3643 22.0057 13.3709 21.9685C13.3776 21.9313 13.3945 21.8967 13.4198 21.8687L13.5758 22.0211Z" fill="white"/>
<path d="M11.0124 19.0606C11.015 19.083 11.015 19.1056 11.0124 19.128C11.0125 19.1799 11.0019 19.2313 10.9811 19.2789C10.9604 19.3265 10.93 19.3693 10.8919 19.4045L10.626 19.1457L11.0124 19.0606Z" fill="white"/>
<path d="M11.0124 19.0606L10.6331 19.1421L10.899 19.4009C10.8371 19.459 10.7577 19.4948 10.6733 19.5029C10.5889 19.5109 10.5042 19.4907 10.4325 19.4454C10.3608 19.4001 10.3061 19.3323 10.2771 19.2525C10.2482 19.1728 10.2465 19.0858 10.2723 19.005C10.2982 18.9242 10.3501 18.8543 10.42 18.8062C10.4898 18.7581 10.5737 18.7346 10.6584 18.7394C10.7431 18.7441 10.8238 18.7768 10.8879 18.8324C10.9519 18.888 10.9958 18.9632 11.0124 19.0464V19.0606Z" fill="white"/>
<path d="M8.24695 10.4487C8.24695 10.4487 11.8917 19.6492 17.6566 20.1703C17.7169 20.1703 17.7772 20.1703 17.8374 20.1703C21.2766 20.3724 23.1557 21.3758 24.4143 22.3898C24.9595 22.8579 25.4768 23.3575 25.9637 23.886C26.1161 24.042 26.2615 24.1803 26.4068 24.3008" stroke="white" stroke-width="0.25" stroke-linejoin="round"/>
<path d="M13.7673 21.9396L17.3943 20.3583L17.7878 20.1881" stroke="white" stroke-width="0.25" stroke-linejoin="round"/>
<path d="M13.1397 25.9034L13.5545 22.2054" stroke="white" stroke-width="0.25" stroke-linejoin="round"/>
<path d="M10.9025 19.4045L13.4197 21.8686" stroke="white" stroke-width="0.25" stroke-linejoin="round"/>
<path d="M13.7389 18.4686L11.0124 19.0607" stroke="white" stroke-width="0.25" stroke-linejoin="round"/>
<path d="M2.15227 7.05564C2.31283 7.05564 2.443 6.92548 2.443 6.76491C2.443 6.60435 2.31283 6.47418 2.15227 6.47418C1.9917 6.47418 1.86154 6.60435 1.86154 6.76491C1.86154 6.92548 1.9917 7.05564 2.15227 7.05564Z" fill="white"/>
<path d="M13.1397 26.2154C13.3101 26.2154 13.4482 26.0773 13.4482 25.907C13.4482 25.7366 13.3101 25.5985 13.1397 25.5985C12.9693 25.5985 12.8312 25.7366 12.8312 25.907C12.8312 26.0773 12.9693 26.2154 13.1397 26.2154Z" fill="white"/>
<path d="M26.4988 24.4616C26.5791 24.3813 26.5791 24.2511 26.4988 24.1708C26.4185 24.0905 26.2883 24.0905 26.208 24.1708C26.1277 24.2511 26.1277 24.3813 26.208 24.4616C26.2883 24.5419 26.4185 24.5419 26.4988 24.4616Z" fill="white"/>
<path d="M18.1424 12.654L1 1L7.61939 12.3845C7.61939 12.3845 2.2551 29.1652 11.1826 35.54L12.31 38.1672H22.0105L27.1372 34.6642L29.775 38.4614L32.4625 34.5614L37.5325 38.1778H47.2329L48.3604 35.5506C48.3604 35.5506 57.1106 31.4769 51.9555 12.381L58.5714 1L41.429 12.654L29.7892 11.2145L18.1424 12.654Z" stroke="white" stroke-width="0.25" stroke-linejoin="round"/>
<path d="M18.1424 12.6362L29.7821 29.2184L41.429 12.6362L29.7892 11.1968L18.1424 12.6362Z" stroke="white" stroke-width="0.25" stroke-linejoin="round"/>
<path d="M29.7822 29.2184L32.4767 34.5508L34.6076 32.4731L37.1745 29.2184" stroke="white" stroke-width="0.25" stroke-linejoin="round"/>
<path d="M1 1L23.964 20.9291L29.775 18.0856L35.6002 20.9255L58.5714 1" stroke="white" stroke-width="0.25" stroke-linejoin="round"/>
<path d="M7.61938 12.381L8.19375 10.4487L10.6366 19.1457L9.00921 26.2792L12.388 34.1005L14.4515 38.1672V34.9762L16.3909 30.4168L13.1397 25.9034L9.00921 26.2792" stroke="white" stroke-width="0.25" stroke-linejoin="round"/>
<path d="M16.3909 30.4168L22.4005 29.2184L26.3537 24.315L24.9638 32.4731L14.4515 34.9762L12.388 34.1005L11.2003 35.54" stroke="white" stroke-width="0.25" stroke-linejoin="round"/>
<path d="M22.0247 38.1672L24.9639 32.4731L22.4005 29.2184" stroke="white" stroke-width="0.25" stroke-linejoin="round"/>
<path d="M24.9638 32.4731L27.1549 34.6642L29.7821 29.2184L29.7892 11.1968" stroke="white" stroke-width="0.25" stroke-linejoin="round"/>
<path d="M51.9519 12.381L51.3776 10.4487L48.9348 19.1457L45.9956 22.0246L46.4352 25.9034L43.1804 30.4168L37.1744 29.2184L33.2 24.3079L34.6075 32.4731L37.5467 38.1672" stroke="white" stroke-width="0.25" stroke-linejoin="round"/>
<path d="M34.6075 32.4731L45.1198 34.9762L47.1833 34.1005L50.5621 26.2792L48.9347 19.1457L45.836 18.465" stroke="white" stroke-width="0.25" stroke-linejoin="round"/>
<path d="M46.4352 25.9034L50.5621 26.2792H53.3843" stroke="white" stroke-width="0.25" stroke-linejoin="round"/>
<path d="M43.1805 30.4167L45.1199 34.9762V38.1671L47.1833 34.1005L48.3746 35.54" stroke="white" stroke-width="0.25" stroke-linejoin="round"/>
<path d="M41.7729 20.181C42.4944 20.6583 43.0644 21.3319 43.4157 22.1224C43.7671 22.9129 43.8853 23.7874 43.7562 24.6428C43.6272 25.4982 43.2563 26.2989 42.6874 26.9505C42.1184 27.6022 41.3751 28.0777 40.5449 28.3209C39.7148 28.5642 38.8324 28.5651 38.0017 28.3235C37.171 28.082 36.4267 27.6081 35.8564 26.9576C35.2861 26.3071 34.9136 25.5072 34.7828 24.6521C34.652 23.7969 34.7683 22.9222 35.118 22.131C36.0239 21.35 37.0865 20.7718 38.2343 20.4355C39.3822 20.0991 40.5887 20.0124 41.7729 20.181ZM41.5212 23.964C41.5226 23.3995 41.3112 22.8551 40.9291 22.4395C40.8543 22.293 40.728 22.1794 40.5745 22.1204C40.1619 21.8305 39.6639 21.6876 39.1604 21.7145C38.6568 21.7414 38.1769 21.9365 37.7975 22.2687C37.4181 22.6008 37.1611 23.0507 37.0679 23.5463C36.9746 24.0418 37.0504 24.5544 37.2832 25.0017C37.5159 25.449 37.892 25.8053 38.3514 26.0134C38.8107 26.2215 39.3266 26.2694 39.8163 26.1493C40.3061 26.0293 40.7414 25.7483 41.0524 25.3514C41.3635 24.9546 41.5323 24.4647 41.5318 23.9605L41.5212 23.964Z" fill="white"/>
<path d="M41.0035 22.7444C41.0038 22.6382 40.9782 22.5336 40.9291 22.4395C41.315 22.8689 41.5214 23.43 41.5059 24.0072C41.4904 24.5844 41.2541 25.1336 40.8456 25.5417C40.4372 25.9498 39.8878 26.1857 39.3106 26.2007C38.7335 26.2158 38.1725 26.0089 37.7433 25.6226C37.3142 25.2364 37.0495 24.7003 37.0039 24.1247C36.9583 23.5491 37.1352 22.978 37.4982 22.529C37.8612 22.08 38.3826 21.7873 38.9549 21.7113C39.5272 21.6353 40.1069 21.7817 40.5745 22.1204C40.5028 22.0951 40.4273 22.0819 40.3512 22.0814C40.221 22.0821 40.094 22.1212 39.9861 22.194C39.8782 22.2667 39.7943 22.3697 39.7448 22.4901C39.6953 22.6104 39.6826 22.7427 39.7081 22.8703C39.7337 22.9979 39.7964 23.1151 39.8884 23.2071C39.9804 23.2991 40.0976 23.3619 40.2252 23.3874C40.3528 23.413 40.4851 23.4002 40.6055 23.3507C40.7258 23.3013 40.8288 23.2173 40.9016 23.1094C40.9743 23.0015 41.0135 22.8745 41.0142 22.7444H41.0035Z" fill="#0D3B66"/>
<path d="M40.9291 22.4394C40.9964 22.5676 41.02 22.7142 40.9962 22.857C40.9723 22.9998 40.9024 23.1308 40.7972 23.2302C40.6919 23.3295 40.5569 23.3916 40.413 23.4071C40.2691 23.4226 40.1241 23.3905 40.0001 23.3158C39.8761 23.2411 39.7799 23.1279 39.7263 22.9934C39.6727 22.859 39.6646 22.7107 39.7032 22.5712C39.7418 22.4316 39.825 22.3086 39.94 22.2208C40.0551 22.133 40.1958 22.0853 40.3405 22.0849C40.4166 22.0855 40.4921 22.0986 40.5639 22.1239C40.6963 22.2161 40.8187 22.3218 40.9291 22.4394Z" fill="#F1F1F1"/>
<path d="M40.9291 22.4395C40.8222 22.3212 40.7034 22.2142 40.5745 22.1204C40.728 22.1793 40.8543 22.293 40.9291 22.4395Z" fill="#F1F1F1"/>
<path d="M33.2532 24.3079C33.2532 24.3079 33.3276 24.1732 33.4765 23.9534C33.9404 23.2767 34.4924 22.6651 35.1181 22.1345C36.024 21.3535 37.0865 20.7753 38.2344 20.439C39.3822 20.1027 40.5888 20.0159 41.7729 20.1845H41.8368C47.0061 19.9363 50.5338 12.4412 51.328 10.6118" stroke="white" stroke-width="0.25" stroke-linejoin="round"/>
<path d="M45.9956 22.0247L41.7871 20.1881" stroke="white" stroke-width="0.25" stroke-linejoin="round"/>
<path d="M4.11291 19.3478C4.43012 19.3478 4.68727 19.0907 4.68727 18.7735C4.68727 18.4562 4.43012 18.1991 4.11291 18.1991C3.79569 18.1991 3.53854 18.4562 3.53854 18.7735C3.53854 19.0907 3.79569 19.3478 4.11291 19.3478Z" fill="white"/>
<path d="M14.7103 9.95586C15.0941 9.95586 15.4052 9.64474 15.4052 9.26095C15.4052 8.87716 15.0941 8.56604 14.7103 8.56604C14.3265 8.56604 14.0154 8.87716 14.0154 9.26095C14.0154 9.64474 14.3265 9.95586 14.7103 9.95586Z" fill="white"/>
<path d="M55.3946 19.3549C55.7373 19.3549 56.0151 19.0771 56.0151 18.7344C56.0151 18.3917 55.7373 18.114 55.3946 18.114C55.052 18.114 54.7742 18.3917 54.7742 18.7344C54.7742 19.0771 55.052 19.3549 55.3946 19.3549Z" fill="white"/>
<path d="M29.7998 30.1898C30.3442 30.1898 30.7855 29.7486 30.7855 29.2042C30.7855 28.6599 30.3442 28.2186 29.7998 28.2186C29.2555 28.2186 28.8142 28.6599 28.8142 29.2042C28.8142 29.7486 29.2555 30.1898 29.7998 30.1898Z" fill="white"/>
<path d="M53.2035 39.4684C53.4659 39.4684 53.6786 39.2557 53.6786 38.9933C53.6786 38.7309 53.4659 38.5182 53.2035 38.5182C52.9412 38.5182 52.7285 38.7309 52.7285 38.9933C52.7285 39.2557 52.9412 39.4684 53.2035 39.4684Z" fill="white"/>
<path d="M7.65127 37.0574C7.91366 37.0574 8.12637 36.8447 8.12637 36.5823C8.12637 36.3199 7.91366 36.1072 7.65127 36.1072C7.38888 36.1072 7.17618 36.3199 7.17618 36.5823C7.17618 36.8447 7.38888 37.0574 7.65127 37.0574Z" fill="white"/>
<path d="M43.2443 30.5976C43.4303 30.5976 43.5811 30.4468 43.5811 30.2608C43.5811 30.0748 43.4303 29.924 43.2443 29.924C43.0583 29.924 42.9075 30.0748 42.9075 30.2608C42.9075 30.4468 43.0583 30.5976 43.2443 30.5976Z" fill="white"/>
<path d="M50.431 40.4504C50.7325 40.4504 50.9769 40.206 50.9769 39.9044C50.9769 39.6029 50.7325 39.3584 50.431 39.3584C50.1294 39.3584 49.8849 39.6029 49.8849 39.9044C49.8849 40.206 50.1294 40.4504 50.431 40.4504Z" fill="white"/>
<path d="M17.6141 41C17.9156 41 18.1601 40.7556 18.1601 40.454C18.1601 40.1525 17.9156 39.908 17.6141 39.908C17.3125 39.908 17.0681 40.1525 17.0681 40.454C17.0681 40.7556 17.3125 41 17.6141 41Z" fill="white"/>
<path d="M22.0495 38.628C22.3118 38.628 22.5246 38.4153 22.5246 38.1529C22.5246 37.8906 22.3118 37.6779 22.0495 37.6779C21.7871 37.6779 21.5744 37.8906 21.5744 38.1529C21.5744 38.4153 21.7871 38.628 22.0495 38.628Z" fill="white"/>
<path d="M29.7857 18.7487C30.1479 18.7487 30.4416 18.455 30.4416 18.0927C30.4416 17.7305 30.1479 17.4368 29.7857 17.4368C29.4234 17.4368 29.1298 17.7305 29.1298 18.0927C29.1298 18.455 29.4234 18.7487 29.7857 18.7487Z" fill="white"/>
<path d="M37.5468 38.7096C37.8483 38.7096 38.0928 38.4652 38.0928 38.1636C38.0928 37.8621 37.8483 37.6176 37.5468 37.6176C37.2452 37.6176 37.0008 37.8621 37.0008 38.1636C37.0008 38.4652 37.2452 38.7096 37.5468 38.7096Z" fill="white"/>
<path d="M51.6329 22.8224C51.7934 22.8224 51.9236 22.6922 51.9236 22.5316C51.9236 22.3711 51.7934 22.2409 51.6329 22.2409C51.4723 22.2409 51.3421 22.3711 51.3421 22.5316C51.3421 22.6922 51.4723 22.8224 51.6329 22.8224Z" fill="white"/>
<path d="M55.2386 9.7963C55.3992 9.7963 55.5294 9.66614 55.5294 9.50557C55.5294 9.34501 55.3992 9.21484 55.2386 9.21484C55.0781 9.21484 54.9479 9.34501 54.9479 9.50557C54.9479 9.66614 55.0781 9.7963 55.2386 9.7963Z" fill="white"/>
<path d="M47.4065 34.2724C47.4764 34.1278 47.4157 33.954 47.2711 33.8841C47.1265 33.8143 46.9527 33.875 46.8829 34.0196C46.8131 34.1642 46.8737 34.338 47.0183 34.4078C47.1629 34.4776 47.3367 34.417 47.4065 34.2724Z" fill="white"/>
<path d="M45.4066 35.0875C45.4764 34.9429 45.4158 34.7691 45.2712 34.6993C45.1266 34.6295 44.9528 34.6901 44.883 34.8347C44.8132 34.9793 44.8738 35.1531 45.0184 35.223C45.163 35.2928 45.3368 35.2321 45.4066 35.0875Z" fill="white"/>
<path d="M14.7593 35.0886C14.8291 34.944 14.7685 34.7702 14.6239 34.7004C14.4793 34.6306 14.3055 34.6912 14.2357 34.8358C14.1659 34.9804 14.2265 35.1542 14.3711 35.2241C14.5157 35.2939 14.6895 35.2332 14.7593 35.0886Z" fill="white"/>
<path d="M1.95728 26.9847C2.17854 26.9847 2.35792 26.8054 2.35792 26.5841C2.35792 26.3628 2.17854 26.1835 1.95728 26.1835C1.73601 26.1835 1.55664 26.3628 1.55664 26.5841C1.55664 26.8054 1.73601 26.9847 1.95728 26.9847Z" fill="white"/>
<path d="M56.0151 27.8605C56.2364 27.8605 56.4157 27.6811 56.4157 27.4598C56.4157 27.2386 56.2364 27.0592 56.0151 27.0592C55.7938 27.0592 55.6145 27.2386 55.6145 27.4598C55.6145 27.6811 55.7938 27.8605 56.0151 27.8605Z" fill="white"/>
<path d="M37.88 10.0161C38.1012 10.0161 38.2806 9.83675 38.2806 9.61548C38.2806 9.39422 38.1012 9.21484 37.88 9.21484C37.6587 9.21484 37.4793 9.39422 37.4793 9.61548C37.4793 9.83675 37.6587 10.0161 37.88 10.0161Z" fill="white"/>
<path d="M48.9383 19.5535C49.1596 19.5535 49.339 19.3741 49.339 19.1528C49.339 18.9316 49.1596 18.7522 48.9383 18.7522C48.7171 18.7522 48.5377 18.9316 48.5377 19.1528C48.5377 19.3741 48.7171 19.5535 48.9383 19.5535Z" fill="white"/>
<path d="M19.9151 32.5299C20.0757 32.5299 20.2058 32.3997 20.2058 32.2392C20.2058 32.0786 20.0757 31.9484 19.9151 31.9484C19.7545 31.9484 19.6244 32.0786 19.6244 32.2392C19.6244 32.3997 19.7545 32.5299 19.9151 32.5299Z" fill="white"/>
<path d="M40.3406 32.4448C40.4542 32.4448 40.5462 32.3527 40.5462 32.2391C40.5462 32.1256 40.4542 32.0335 40.3406 32.0335C40.227 32.0335 40.1349 32.1256 40.1349 32.2391C40.1349 32.3527 40.227 32.4448 40.3406 32.4448Z" fill="white"/>
<path d="M12.42 34.5649C12.6608 34.5649 12.8561 34.3697 12.8561 34.1288C12.8561 33.888 12.6608 33.6927 12.42 33.6927C12.1791 33.6927 11.9839 33.888 11.9839 34.1288C11.9839 34.3697 12.1791 34.5649 12.42 34.5649Z" fill="white"/>
<path d="M26.1941 39.7591C26.3547 39.7591 26.4849 39.6289 26.4849 39.4683C26.4849 39.3078 26.3547 39.1776 26.1941 39.1776C26.0336 39.1776 25.9034 39.3078 25.9034 39.4683C25.9034 39.6289 26.0336 39.7591 26.1941 39.7591Z" fill="white"/>
<path d="M25.3645 10.4841C25.525 10.4841 25.6552 10.3539 25.6552 10.1934C25.6552 10.0328 25.525 9.90265 25.3645 9.90265C25.2039 9.90265 25.0737 10.0328 25.0737 10.1934C25.0737 10.3539 25.2039 10.4841 25.3645 10.4841Z" fill="white"/>
<path d="M33.4943 39.7945C33.6548 39.7945 33.785 39.6644 33.785 39.5038C33.785 39.3432 33.6548 39.2131 33.4943 39.2131C33.3337 39.2131 33.2036 39.3432 33.2036 39.5038C33.2036 39.6644 33.3337 39.7945 33.4943 39.7945Z" fill="white"/>
<path d="M24.9709 32.6469C25.0845 32.6469 25.1765 32.5548 25.1765 32.4412C25.1765 32.3277 25.0845 32.2356 24.9709 32.2356C24.8573 32.2356 24.7653 32.3277 24.7653 32.4412C24.7653 32.5548 24.8573 32.6469 24.9709 32.6469Z" fill="white"/>
<path d="M27.1408 34.8309C27.2543 34.8309 27.3464 34.7388 27.3464 34.6253C27.3464 34.5117 27.2543 34.4196 27.1408 34.4196C27.0272 34.4196 26.9351 34.5117 26.9351 34.6253C26.9351 34.7388 27.0272 34.8309 27.1408 34.8309Z" fill="white"/>
<path d="M32.4837 34.7741C32.5973 34.7741 32.6894 34.6821 32.6894 34.5685C32.6894 34.4549 32.5973 34.3629 32.4837 34.3629C32.3702 34.3629 32.2781 34.4549 32.2781 34.5685C32.2781 34.6821 32.3702 34.7741 32.4837 34.7741Z" fill="white"/>
<path d="M16.5289 30.5449C16.6092 30.4646 16.6092 30.3344 16.5289 30.2541C16.4486 30.1738 16.3184 30.1738 16.2381 30.2541C16.1578 30.3344 16.1578 30.4646 16.2381 30.5449C16.3184 30.6252 16.4486 30.6252 16.5289 30.5449Z" fill="white"/>
<path d="M22.4951 29.3538C22.5754 29.2735 22.5754 29.1433 22.4951 29.063C22.4148 28.9827 22.2846 28.9827 22.2043 29.063C22.124 29.1433 22.124 29.2735 22.2043 29.3538C22.2846 29.4341 22.4148 29.4341 22.4951 29.3538Z" fill="white"/>
<path d="M33.4379 24.537C33.5597 24.4151 33.5597 24.2176 33.4379 24.0957C33.316 23.9739 33.1185 23.9739 32.9966 24.0957C32.8748 24.2176 32.8748 24.4151 32.9966 24.537C33.1185 24.6588 33.316 24.6588 33.4379 24.537Z" fill="white"/>
<path d="M45.9956 22.209C46.1091 22.209 46.2012 22.1169 46.2012 22.0034C46.2012 21.8898 46.1091 21.7977 45.9956 21.7977C45.882 21.7977 45.7899 21.8898 45.7899 22.0034C45.7899 22.1169 45.882 22.209 45.9956 22.209Z" fill="white"/>
<path d="M46.4423 26.1267C46.5558 26.1267 46.6479 26.0347 46.6479 25.9211C46.6479 25.8075 46.5558 25.7155 46.4423 25.7155C46.3287 25.7155 46.2366 25.8075 46.2366 25.9211C46.2366 26.0347 46.3287 26.1267 46.4423 26.1267Z" fill="white"/>
<path d="M34.6182 32.693C34.7317 32.693 34.8238 32.6009 34.8238 32.4873C34.8238 32.3737 34.7317 32.2817 34.6182 32.2817C34.5046 32.2817 34.4125 32.3737 34.4125 32.4873C34.4125 32.6009 34.5046 32.693 34.6182 32.693Z" fill="white"/>
<path d="M37.1709 29.6829C37.4274 29.6829 37.6353 29.4749 37.6353 29.2184C37.6353 28.9619 37.4274 28.754 37.1709 28.754C36.9144 28.754 36.7064 28.9619 36.7064 29.2184C36.7064 29.4749 36.9144 29.6829 37.1709 29.6829Z" fill="white"/>
<path d="M34.487 20.1137C34.6475 20.1137 34.7777 19.9835 34.7777 19.823C34.7777 19.6624 34.6475 19.5322 34.487 19.5322C34.3264 19.5322 34.1962 19.6624 34.1962 19.823C34.1962 19.9835 34.3264 20.1137 34.487 20.1137Z" fill="white"/>
<path d="M7.36056 28.0413C7.52112 28.0413 7.65128 27.9111 7.65128 27.7506C7.65128 27.59 7.52112 27.4598 7.36056 27.4598C7.19999 27.4598 7.06982 27.59 7.06982 27.7506C7.06982 27.9111 7.19999 28.0413 7.36056 28.0413Z" fill="white"/>
<path d="M9.04115 26.499C9.15472 26.499 9.24678 26.407 9.24678 26.2934C9.24678 26.1798 9.15472 26.0878 9.04115 26.0878C8.92758 26.0878 8.83551 26.1798 8.83551 26.2934C8.83551 26.407 8.92758 26.499 9.04115 26.499Z" fill="white"/>
<path d="M50.4983 26.5841C50.6589 26.5841 50.7891 26.4539 50.7891 26.2934C50.7891 26.1328 50.6589 26.0026 50.4983 26.0026C50.3378 26.0026 50.2076 26.1328 50.2076 26.2934C50.2076 26.4539 50.3378 26.5841 50.4983 26.5841Z" fill="white"/>
<path d="M17.3943 20.3583C17.4794 20.2909 17.5645 20.2306 17.6566 20.1703C17.7169 20.1703 17.7772 20.1703 17.8375 20.1703C21.2766 20.3724 23.1557 21.3758 24.4143 22.3898C24.7019 23.1781 24.7654 24.0307 24.5976 24.8528C24.4299 25.675 24.0374 26.4345 23.464 27.0471C22.8905 27.6596 22.1584 28.1012 21.3491 28.3227C20.5397 28.5442 19.6848 28.537 18.8793 28.3018C18.0739 28.0667 17.3493 27.6128 16.7863 26.9907C16.2232 26.3686 15.8437 25.6025 15.6898 24.7776C15.5359 23.9528 15.6138 23.1014 15.9147 22.3181C16.2156 21.5348 16.7277 20.8503 17.3943 20.3405V20.3583ZM22.404 23.9605C22.4075 23.3979 22.1986 22.8547 21.819 22.4394C21.7442 22.293 21.618 22.1793 21.4645 22.1204C21.0518 21.8305 20.5539 21.6876 20.0503 21.7145C19.5468 21.7414 19.0668 21.9365 18.6874 22.2687C18.308 22.6008 18.0511 23.0507 17.9578 23.5463C17.8646 24.0418 17.9404 24.5543 18.1731 25.0017C18.4058 25.449 18.782 25.8053 19.2413 26.0134C19.7006 26.2215 20.2165 26.2693 20.7063 26.1493C21.196 26.0293 21.6313 25.7483 21.9424 25.3514C22.2534 24.9545 22.4222 24.4647 22.4217 23.9605H22.404Z" fill="white"/>
<path d="M21.8829 22.7444C21.8831 22.6382 21.8575 22.5336 21.8084 22.4395C22.1943 22.8689 22.4008 23.43 22.3853 24.0072C22.3697 24.5844 22.1334 25.1336 21.725 25.5417C21.3166 25.9498 20.7671 26.1857 20.19 26.2007C19.6128 26.2158 19.0518 26.0089 18.6227 25.6226C18.1935 25.2364 17.9289 24.7003 17.8833 24.1247C17.8377 23.5491 18.0146 22.978 18.3775 22.529C18.7405 22.08 19.2619 21.7873 19.8342 21.7113C20.4066 21.6353 20.9863 21.7817 21.4539 22.1204C21.3821 22.0951 21.3066 22.0819 21.2305 22.0814C21.1004 22.0821 20.9734 22.1212 20.8655 22.194C20.7576 22.2667 20.6736 22.3697 20.6241 22.4901C20.5747 22.6104 20.5619 22.7427 20.5875 22.8703C20.613 22.9979 20.6757 23.1151 20.7678 23.2071C20.8598 23.2991 20.9769 23.3619 21.1045 23.3874C21.2321 23.413 21.3644 23.4002 21.4848 23.3507C21.6051 23.3013 21.7082 23.2173 21.7809 23.1094C21.8536 23.0015 21.8928 22.8745 21.8935 22.7444H21.8829Z" fill="#0D3B66"/>
<path d="M21.819 22.4394C21.8855 22.5669 21.9085 22.7127 21.8845 22.8545C21.8604 22.9962 21.7908 23.1263 21.686 23.2248C21.5812 23.3233 21.4472 23.3848 21.3042 23.4001C21.1612 23.4153 21.0171 23.3834 20.894 23.3092C20.7708 23.235 20.6753 23.1226 20.6219 22.9891C20.5685 22.8556 20.5603 22.7082 20.5984 22.5696C20.6365 22.4309 20.7189 22.3085 20.833 22.221C20.9471 22.1335 21.0867 22.0857 21.2304 22.0849C21.3065 22.0855 21.382 22.0986 21.4538 22.1239C21.5867 22.2155 21.7091 22.3213 21.819 22.4394Z" fill="#F1F1F1"/>
<path d="M21.819 22.4395C21.7127 22.3206 21.5938 22.2136 21.4644 22.1204C21.6179 22.1793 21.7442 22.293 21.819 22.4395Z" fill="#F1F1F1"/>
<path d="M13.7708 21.9396C13.7753 21.9606 13.7753 21.9824 13.7708 22.0034C13.7708 22.0579 13.7492 22.1102 13.7106 22.1488C13.672 22.1874 13.6197 22.209 13.5652 22.209H13.5475L13.5687 22.0247L13.7708 21.9396Z" fill="white"/>
<path d="M13.7708 21.9395L13.5793 22.0211L13.4233 21.8686C13.4418 21.845 13.4655 21.8261 13.4926 21.8131C13.5197 21.8002 13.5493 21.7937 13.5793 21.7941C13.6226 21.7947 13.6645 21.8091 13.699 21.8353C13.7335 21.8614 13.7586 21.898 13.7708 21.9395Z" fill="white"/>
<path d="M13.5758 22.0211L13.5545 22.2055C13.5169 22.2026 13.4808 22.1892 13.4503 22.1669C13.4199 22.1445 13.3963 22.1141 13.3823 22.079C13.3682 22.044 13.3643 22.0057 13.3709 21.9685C13.3776 21.9313 13.3945 21.8967 13.4198 21.8687L13.5758 22.0211Z" fill="white"/>
<path d="M11.0124 19.0606C11.015 19.083 11.015 19.1056 11.0124 19.128C11.0125 19.1799 11.0019 19.2313 10.9811 19.2789C10.9604 19.3265 10.93 19.3693 10.8919 19.4045L10.626 19.1457L11.0124 19.0606Z" fill="white"/>
<path d="M11.0124 19.0606L10.6331 19.1421L10.899 19.4009C10.8371 19.459 10.7577 19.4948 10.6733 19.5029C10.5889 19.5109 10.5042 19.4907 10.4325 19.4454C10.3608 19.4001 10.3061 19.3323 10.2771 19.2525C10.2482 19.1728 10.2465 19.0858 10.2723 19.005C10.2982 18.9242 10.3501 18.8543 10.42 18.8062C10.4898 18.7581 10.5737 18.7346 10.6584 18.7394C10.7431 18.7441 10.8238 18.7768 10.8879 18.8324C10.9519 18.888 10.9958 18.9632 11.0124 19.0464V19.0606Z" fill="white"/>
<path d="M8.24695 10.4487C8.24695 10.4487 11.8917 19.6492 17.6566 20.1703C17.7169 20.1703 17.7772 20.1703 17.8374 20.1703C21.2766 20.3724 23.1557 21.3758 24.4143 22.3898C24.9595 22.8579 25.4768 23.3575 25.9637 23.886C26.1161 24.042 26.2615 24.1803 26.4068 24.3008" stroke="white" stroke-width="0.25" stroke-linejoin="round"/>
<path d="M13.7673 21.9396L17.3943 20.3583L17.7878 20.1881" stroke="white" stroke-width="0.25" stroke-linejoin="round"/>
<path d="M13.1397 25.9034L13.5545 22.2054" stroke="white" stroke-width="0.25" stroke-linejoin="round"/>
<path d="M10.9025 19.4045L13.4197 21.8686" stroke="white" stroke-width="0.25" stroke-linejoin="round"/>
<path d="M13.7389 18.4686L11.0124 19.0607" stroke="white" stroke-width="0.25" stroke-linejoin="round"/>
<path d="M2.15227 7.05564C2.31283 7.05564 2.443 6.92548 2.443 6.76491C2.443 6.60435 2.31283 6.47418 2.15227 6.47418C1.9917 6.47418 1.86154 6.60435 1.86154 6.76491C1.86154 6.92548 1.9917 7.05564 2.15227 7.05564Z" fill="white"/>
<path d="M13.1397 26.2154C13.3101 26.2154 13.4482 26.0773 13.4482 25.907C13.4482 25.7366 13.3101 25.5985 13.1397 25.5985C12.9693 25.5985 12.8312 25.7366 12.8312 25.907C12.8312 26.0773 12.9693 26.2154 13.1397 26.2154Z" fill="white"/>
<path d="M26.4988 24.4616C26.5791 24.3813 26.5791 24.2511 26.4988 24.1708C26.4185 24.0905 26.2883 24.0905 26.208 24.1708C26.1277 24.2511 26.1277 24.3813 26.208 24.4616C26.2883 24.5419 26.4185 24.5419 26.4988 24.4616Z" fill="white"/>
<path d="M83.8337 11H89.1V13.1677L82.5321 19.5664C83.6848 20.1249 84.6938 20.9406 85.4813 21.9507C86.2963 23.0056 86.9846 24.1524 87.5321 25.3678L88.7989 28.1354H92.1662V30.3902H87.2086L86.0413 27.4908C85.8638 27.0909 85.6307 26.5857 85.342 25.9751C85.0308 25.3254 84.6688 24.7012 84.2593 24.1085C83.8178 23.4695 83.3179 22.873 82.7661 22.3265C82.2384 21.785 81.6023 21.3609 80.8995 21.0821L78 23.9666V21.1667L86.0338 13.2673H83.8337V11Z" fill="white"/>
<path d="M106.663 18.3992H109.03V23.7999C109.03 26.1991 108.367 27.9993 107.039 29.2006C105.712 30.4019 103.94 31.0017 101.723 31C99.5132 31 97.7445 30.4002 96.4171 29.2006C95.0897 28.001 94.4261 26.2008 94.4261 23.7999V11H100.198V13.2673H96.7979V22.5655C96.7901 23.4009 96.8685 24.2349 97.0318 25.0543C97.1627 25.7389 97.4293 26.3905 97.8158 26.9706C98.189 27.5154 98.7059 27.9462 99.3091 28.215C100.075 28.5291 100.899 28.6767 101.726 28.6481C102.551 28.6697 103.371 28.517 104.132 28.2001C104.744 27.9357 105.27 27.5044 105.648 26.9557C106.035 26.3756 106.301 25.724 106.432 25.0393C106.595 24.2199 106.673 23.3859 106.666 22.5505L106.663 18.3992Z" fill="white"/>
<path d="M112.064 22.1324H121.196L117.53 12.9985V11.0074H119.065L126.064 28.1403H126.23V30.3902H120.397V28.1229H123.597L122.064 24.3897H113.839V24.3574H111.101L112.064 22.1324Z" fill="white"/>
<path d="M133.794 28.1329H136.26V30.3903H131.395L131.362 13.3594H128.928V11.1021H133.794V28.1329Z" fill="white"/>
<path d="M145.593 13.2673H141.362V28.1329L152.828 28.1006L152.761 30.4002H139.028V11.0349L145.593 11.0025V13.2673Z" fill="white"/>
<path d="M158.226 28.1329H160.693V30.3903H155.827L155.795 13.3594H153.361V11.1021H158.226V28.1329Z" fill="white"/>
<path d="M162.619 22.1324H171.751L168.095 13.001V11.0099H169.628L176.626 28.1428H176.793V30.3902H170.959V28.1229H174.16L172.627 24.3897H164.394V24.3574H161.656L162.619 22.1324Z" fill="white"/>
<path d="M180.125 11.1344L189.359 27.5007V19.8676H191.726V30.9676H188.625L179.192 14.2031V20.5346H176.825V13.4017H173.991V11.1344H180.125Z" fill="white"/>
<defs>
<linearGradient id="paint0_linear" x1="34.7316" y1="24.3044" x2="43.8044" y2="24.3044" gradientUnits="userSpaceOnUse">
<stop offset="0.01" stop-color="#0D3B66"/>
<stop offset="1" stop-color="#27A6DD"/>
</linearGradient>
<linearGradient id="paint1_linear" x1="1726.52" y1="568.433" x2="1958.87" y2="568.433" gradientUnits="userSpaceOnUse">
<stop offset="0.01" stop-color="#0D3B66"/>
<stop offset="1" stop-color="#27A6DD"/>
</linearGradient>
<linearGradient id="paint2_linear" x1="34.7316" y1="24.3044" x2="43.8044" y2="24.3044" gradientUnits="userSpaceOnUse">
<stop offset="0.01" stop-color="#0D3B66"/>
<stop offset="1" stop-color="#27A6DD"/>
</linearGradient>
<linearGradient id="paint3_linear" x1="1726.52" y1="568.433" x2="1958.87" y2="568.433" gradientUnits="userSpaceOnUse">
<stop offset="0.01" stop-color="#0D3B66"/>
<stop offset="1" stop-color="#27A6DD"/>
</linearGradient>
<linearGradient id="paint4_linear" x1="34.7316" y1="24.3044" x2="43.8044" y2="24.3044" gradientUnits="userSpaceOnUse">
<stop offset="0.01" stop-color="#0D3B66"/>
<stop offset="1" stop-color="#27A6DD"/>
</linearGradient>
<linearGradient id="paint5_linear" x1="1726.52" y1="568.433" x2="1958.87" y2="568.433" gradientUnits="userSpaceOnUse">
<stop offset="0.01" stop-color="#0D3B66"/>
<stop offset="1" stop-color="#27A6DD"/>
</linearGradient>
</defs>
</svg>
