<svg width="90" height="90" viewBox="0 0 90 90" fill="none" xmlns="http://www.w3.org/2000/svg">
<circle cx="45" cy="45" r="45" fill="#D2ECF8"/>
<g clip-path="url(#clip0)">
<path d="M36.0581 31.6854C36.3294 32.4708 37.0608 32.9988 37.8781 32.9988H42.8323C43.6497 32.9988 44.381 32.4708 44.6524 31.6854C44.911 30.9347 45.7237 29.2554 46.3544 28.722C46.9071 28.2533 47.1665 27.5273 47.0304 26.8273C46.8971 26.1386 46.4164 25.5946 45.7451 25.3726C43.7443 24.7092 41.9696 24.9325 40.6129 26.0173C40.3696 26.2119 40.0429 26.2119 39.7995 26.0173C38.4428 24.9332 36.6694 24.7099 34.6674 25.3732C33.996 25.5952 33.5147 26.1386 33.3813 26.8279C33.2453 27.528 33.5047 28.254 34.0574 28.7227C34.7714 29.3267 35.8647 31.1254 36.0581 31.6854ZM34.6907 27.082C34.7147 26.9573 34.7987 26.7346 35.0867 26.6393C35.7067 26.4339 36.2848 26.3319 36.8194 26.3319C37.6421 26.3319 38.3608 26.5746 38.9668 27.0593C39.6969 27.644 40.7169 27.6426 41.4456 27.0593C42.4463 26.2593 43.751 26.1179 45.3257 26.6393C45.6137 26.7346 45.6971 26.9579 45.7211 27.082C45.7657 27.3133 45.6804 27.546 45.4924 27.7053C44.4737 28.568 43.563 30.7561 43.3923 31.2514C43.307 31.4994 43.0817 31.6661 42.833 31.6661H37.8788C37.6295 31.6661 37.4048 31.4994 37.3195 31.2514C37.0415 30.4461 35.8047 28.4553 34.92 27.7053C34.7314 27.5453 34.6454 27.3126 34.6907 27.082Z" fill="#20A0DA"/>
<path d="M46.0223 34.3322C46.0223 33.9642 45.7236 33.6655 45.3556 33.6655C45.2316 33.6655 45.1216 33.7089 45.0223 33.7675C44.9229 33.7082 44.8129 33.6655 44.6889 33.6655H36.6887C36.3206 33.6655 36.022 33.9642 36.022 34.3322C36.022 34.7002 36.3206 34.9989 36.6887 34.9989H44.6889V35.6656H37.3554C36.9873 35.6656 36.6887 35.9643 36.6887 36.3323C36.6887 36.7003 36.9873 36.999 37.3554 36.999H45.3056C45.903 37.4963 46.639 37.781 47.425 37.781C48.315 37.781 49.1524 37.4337 49.7824 36.8036C50.0431 36.543 50.0431 36.1216 49.7824 35.8609C49.5218 35.6003 49.1004 35.6003 48.8397 35.8609C48.0864 36.6143 46.781 36.6163 46.0223 35.8703V34.3322V34.3322Z" fill="#20A0DA"/>
<path d="M39.3551 42.3325C35.081 42.3325 30.0215 47.7534 30.0215 52.3329C30.0215 52.7009 30.3202 52.9995 30.6882 52.9995C31.0562 52.9995 31.3549 52.7009 31.3549 52.3329C31.3549 48.5261 35.841 43.6659 39.3551 43.6659C39.7231 43.6659 40.0218 43.3672 40.0218 42.9992C40.0218 42.6312 39.7231 42.3325 39.3551 42.3325Z" fill="#20A0DA"/>
<path d="M58.0225 46.3325C57.3351 46.3325 56.5164 46.3725 55.6911 46.4665C54.793 44.8224 53.609 43.4084 52.1143 42.2637L47.3128 39.0002C46.5188 38.3909 45.2674 37.6655 43.8153 37.6655H38.6305C37.3478 37.6655 36.0864 38.1022 35.097 38.8802L30.3782 42.3183C25.4601 46.1851 23.9033 52.9614 26.6774 58.4309C27.6868 60.421 29.3729 62.8257 31.6783 62.9817C31.8589 62.9937 32.0416 63.0004 32.2256 63.0004H45.1987C46.1774 64.2177 47.6755 65.0004 49.3555 65.0004C51.2876 65.0004 52.9783 63.9637 53.9143 62.421C55.1057 62.791 56.5664 63.0004 58.0225 63.0004C61.2286 63.0004 64.6894 61.981 64.6894 60.3336V56.6668H64.6367C64.6687 56.5588 64.6894 56.4482 64.6894 56.3335V52.3333V48.6666C64.6894 46.8238 60.4986 46.3325 58.0225 46.3325ZM63.3053 48.6599C63.2913 48.6739 63.28 48.6879 63.2606 48.7032C63.2346 48.7239 63.2033 48.7459 63.168 48.7686C63.124 48.7966 63.0706 48.8259 63.0126 48.8552C62.9653 48.8792 62.916 48.9039 62.8593 48.9286C62.7893 48.9599 62.7066 48.9912 62.622 49.0232C62.554 49.0486 62.4853 49.0739 62.408 49.0999C62.3106 49.1319 62.1986 49.1639 62.0859 49.1952C61.9979 49.2199 61.9113 49.2452 61.8139 49.2692C61.6873 49.3006 61.5446 49.3292 61.4026 49.3579C61.2952 49.3799 61.1932 49.4026 61.0772 49.4233C60.9172 49.4513 60.7386 49.4753 60.5619 49.4993C60.4412 49.5159 60.3285 49.5346 60.1999 49.5493C59.9899 49.5733 59.7585 49.5899 59.5279 49.6066C59.4105 49.6153 59.3038 49.6273 59.1812 49.6346C58.8172 49.6546 58.4318 49.6666 58.0205 49.6666C57.6091 49.6666 57.2238 49.6546 56.8598 49.6346C56.7371 49.6279 56.6304 49.6159 56.5131 49.6066C56.2824 49.5893 56.0511 49.5726 55.8411 49.5493C55.7124 49.5346 55.5997 49.5159 55.4791 49.4993C55.3024 49.4753 55.1237 49.4513 54.9637 49.4233C54.8477 49.4026 54.7457 49.3799 54.6384 49.3579C54.4964 49.3286 54.3537 49.2999 54.227 49.2692C54.1297 49.2452 54.0437 49.2206 53.955 49.1952C53.8423 49.1639 53.731 49.1319 53.633 49.0999C53.5557 49.0746 53.487 49.0486 53.419 49.0232C53.3343 48.9912 53.2516 48.9599 53.1816 48.9286C53.125 48.9039 53.0756 48.8792 53.0283 48.8552C52.9703 48.8252 52.917 48.7959 52.873 48.7686C52.8376 48.7459 52.8063 48.7246 52.7803 48.7032C52.7623 48.6892 52.7523 48.6766 52.739 48.6632C52.747 48.6566 52.7523 48.6499 52.7616 48.6426C52.7863 48.6219 52.8216 48.5986 52.8563 48.5759C52.9103 48.5406 52.9776 48.5032 53.057 48.4632C53.1003 48.4412 53.143 48.4199 53.1936 48.3979C53.2463 48.3746 53.307 48.3512 53.3677 48.3272C53.4397 48.2992 53.5183 48.2712 53.6017 48.2432C53.6617 48.2232 53.7197 48.2025 53.7863 48.1825C53.9357 48.1372 54.099 48.0925 54.2783 48.0492C54.361 48.0292 54.457 48.0112 54.547 47.9925C54.6557 47.9692 54.767 47.9465 54.885 47.9252C55.015 47.9019 55.153 47.8799 55.2957 47.8585C56.0471 47.7452 56.9464 47.6665 58.0191 47.6665C61.1699 47.6659 62.932 48.3159 63.3053 48.6599ZM53.139 54.1447C53.199 54.1701 53.261 54.1941 53.3237 54.2187C53.4397 54.2641 53.5583 54.3067 53.681 54.3487C53.7457 54.3707 53.809 54.3921 53.875 54.4128C54.0157 54.4568 54.1603 54.4974 54.3083 54.5368C54.3604 54.5508 54.4104 54.5661 54.463 54.5788C54.665 54.6294 54.8717 54.6761 55.0837 54.7174C55.1277 54.7261 55.1737 54.7328 55.2184 54.7414C55.3884 54.7734 55.5604 54.8028 55.7351 54.8288C55.8097 54.8401 55.8851 54.8494 55.9604 54.8594C56.1104 54.8794 56.2611 54.8974 56.4138 54.9134C56.4938 54.9214 56.5738 54.9294 56.6538 54.9368C56.8111 54.9508 56.9691 54.9614 57.1278 54.9708C57.1984 54.9748 57.2691 54.9801 57.3398 54.9834C57.5678 54.9934 57.7951 55.0001 58.0218 55.0001C58.2485 55.0001 58.4758 54.9934 58.7038 54.9834C58.7758 54.9801 58.8478 54.9748 58.9198 54.9708C59.0765 54.9614 59.2332 54.9508 59.3892 54.9374C59.4712 54.9301 59.5532 54.9221 59.6345 54.9134C59.7845 54.8981 59.9332 54.8801 60.0812 54.8601C60.1585 54.8501 60.2359 54.8401 60.3125 54.8288C60.4846 54.8034 60.6539 54.7741 60.8212 54.7428C60.8686 54.7341 60.9166 54.7268 60.9639 54.7174C61.1746 54.6754 61.3806 54.6294 61.5813 54.5794C61.6373 54.5654 61.6906 54.5494 61.7459 54.5348C61.8906 54.4961 62.0326 54.4561 62.1699 54.4128C62.2373 54.3914 62.3019 54.3694 62.3673 54.3474C62.4893 54.3061 62.608 54.2627 62.7233 54.2181C62.7853 54.1941 62.8473 54.1694 62.9073 54.1441C63.0273 54.0934 63.1413 54.0401 63.2513 53.9854C63.286 53.9681 63.3253 53.9534 63.3586 53.9361L63.3626 56.2855C63.206 56.6648 61.4833 57.5102 58.7652 57.6455C58.5212 57.6542 58.2851 57.6662 58.0218 57.6662C56.5531 57.6662 55.1024 57.4409 53.9943 57.0448C53.9903 57.0382 53.9857 57.0315 53.9817 57.0248C53.903 56.8875 53.8197 56.7535 53.7297 56.6242C53.7163 56.6048 53.701 56.5868 53.687 56.5675C53.6037 56.4508 53.5177 56.3368 53.425 56.2275C53.397 56.1948 53.367 56.1648 53.3383 56.1321C53.2563 56.0395 53.1736 55.9481 53.0856 55.8615C53.0403 55.8168 52.9916 55.7768 52.945 55.7335C52.8676 55.6628 52.7916 55.5921 52.711 55.5261C52.703 55.5195 52.6963 55.5121 52.6883 55.5061C52.6883 55.2454 52.689 54.6661 52.6896 53.9374C52.7236 53.9554 52.7643 53.9707 52.799 53.9881C52.909 54.0421 53.021 54.0947 53.139 54.1447ZM44.3314 61.6663H32.2256C32.0716 61.6663 31.9183 61.661 31.7669 61.651C30.4569 61.5623 29.0715 60.2043 27.8661 57.8275C25.3787 52.9234 26.7821 46.8412 31.1822 43.3811L35.9011 39.9429C36.6758 39.3342 37.6451 38.9989 38.6298 38.9989H43.8147C44.8927 38.9989 45.8701 39.5749 46.5321 40.0809L51.3336 43.3437C52.5263 44.2584 53.5203 45.3771 54.297 46.6778C53.453 46.8518 52.637 47.1172 52.0763 47.5065C52.0609 47.5172 52.0456 47.5279 52.0303 47.5385C51.9456 47.5999 51.8683 47.6645 51.7976 47.7325C51.7676 47.7612 51.7409 47.7905 51.7136 47.8205C51.6609 47.8785 51.6103 47.9372 51.5689 47.9999C51.5343 48.0512 51.5089 48.1065 51.4823 48.1612C51.4589 48.2105 51.4309 48.2579 51.4143 48.3099C51.3776 48.4226 51.3549 48.5406 51.3549 48.6659V52.3327V54.7254C51.1302 54.6341 50.8976 54.5608 50.6589 54.5008C50.6276 54.4928 50.5962 54.4841 50.5649 54.4768C50.3316 54.4221 50.0935 54.3807 49.8502 54.3581C49.8229 54.3554 49.7955 54.3561 49.7682 54.3541C49.6315 54.3434 49.4942 54.3334 49.3549 54.3334C49.2815 54.3334 49.2108 54.3414 49.1382 54.3441C49.0815 54.3461 49.0248 54.3487 48.9682 54.3527C48.7308 54.3701 48.4962 54.3974 48.2681 54.4448C48.2635 54.4454 48.2595 54.4454 48.2548 54.4468C48.2368 54.4508 48.2201 54.4581 48.2021 54.4621C47.9935 54.5081 47.7901 54.5688 47.5915 54.6394C47.5195 54.6648 47.4475 54.6901 47.3768 54.7181C47.1788 54.7974 46.9854 54.8854 46.7994 54.9874C46.7294 55.0254 46.6641 55.0694 46.5961 55.1108C46.4661 55.1901 46.3394 55.2734 46.2174 55.3634C46.1454 55.4161 46.0727 55.4675 46.0034 55.5235C45.8467 55.6501 45.6974 55.7855 45.5561 55.9295C45.4941 55.9921 45.4374 56.0588 45.3787 56.1248C45.2787 56.2368 45.1834 56.3535 45.0934 56.4735C45.0447 56.5388 44.9934 56.6008 44.9474 56.6682C44.83 56.8395 44.7254 57.0195 44.6287 57.2042C44.5914 57.2762 44.5574 57.3495 44.5227 57.4235C44.4467 57.5869 44.3787 57.7535 44.3194 57.9255C44.302 57.9755 44.2807 58.0229 44.2653 58.0735C44.1967 58.2922 44.1467 58.5189 44.1067 58.7482C44.1013 58.7776 44.0907 58.8056 44.086 58.8349C44.0807 58.8709 44.0807 58.9096 44.076 58.9456C44.0547 59.1022 44.0413 59.2609 44.034 59.4216C44.0313 59.4789 44.026 59.5356 44.0253 59.5936C44.0253 59.6183 44.0213 59.6423 44.0213 59.6669C44.0213 59.7729 44.0313 59.8763 44.0373 59.9803C44.0633 60.5563 44.1573 61.135 44.3314 61.6663ZM49.3555 63.6664C47.1654 63.6664 45.3834 61.897 45.3581 59.7136C45.3581 59.6616 45.3594 59.6103 45.3614 59.5583C45.3634 59.4849 45.3667 59.4123 45.3727 59.3396C45.3774 59.2782 45.3847 59.2176 45.3921 59.1569C45.4001 59.0949 45.4094 59.0336 45.4201 58.9729C45.4501 58.7996 45.4887 58.6282 45.5414 58.4622C45.5467 58.4442 45.5547 58.4275 45.5607 58.4102C45.6167 58.2429 45.6841 58.0795 45.7621 57.9215C45.7694 57.9062 45.7767 57.8909 45.7841 57.8762C46.1434 57.1708 46.7108 56.5748 47.3981 56.1821C47.4008 56.1808 47.4028 56.1788 47.4055 56.1775C47.5615 56.0888 47.7255 56.0141 47.8921 55.9475C47.9355 55.9301 47.9795 55.9148 48.0228 55.8995C48.1708 55.8468 48.3215 55.8008 48.4768 55.7668C48.4982 55.7621 48.5182 55.7548 48.5395 55.7508C48.7322 55.7115 48.9255 55.6901 49.1182 55.6788C49.1548 55.6768 49.1915 55.6741 49.2288 55.6735C49.4255 55.6675 49.6215 55.6728 49.8149 55.6955C49.8262 55.6968 49.8369 55.6988 49.8475 55.7008C50.0515 55.7261 50.2535 55.7668 50.4522 55.8241C50.4549 55.8248 50.4582 55.8255 50.4609 55.8261C50.6656 55.8855 50.8662 55.9621 51.0622 56.0548C51.2422 56.1401 51.4176 56.2355 51.5816 56.3455L51.6083 56.3641C51.6316 56.3801 51.6529 56.3981 51.6756 56.4141C51.7863 56.4935 51.8923 56.5775 51.9943 56.6675C52.0189 56.6888 52.0429 56.7115 52.0669 56.7335C52.1689 56.8282 52.2663 56.9268 52.3576 57.0308C52.367 57.0415 52.3763 57.0508 52.3856 57.0615C52.5976 57.3082 52.7803 57.5809 52.927 57.8735C52.961 57.9402 52.995 58.0075 53.025 58.0762C53.0756 58.1929 53.1196 58.3109 53.159 58.4302C53.1616 58.4389 53.1656 58.4476 53.1683 58.4562C53.207 58.5769 53.2383 58.6996 53.265 58.8229C53.267 58.8329 53.2703 58.8422 53.2723 58.8516C53.2977 58.9742 53.3163 59.0982 53.3303 59.2229C53.3316 59.2342 53.3343 59.2442 53.3356 59.2556C53.3497 59.3916 53.357 59.5283 53.357 59.6663C53.357 59.8076 53.349 59.9483 53.3343 60.0883C53.3323 60.1089 53.3277 60.1283 53.325 60.1489C53.3103 60.2696 53.2923 60.3896 53.2663 60.5076C53.2636 60.521 53.259 60.5336 53.2563 60.547C53.2276 60.6736 53.1936 60.799 53.1523 60.923C53.1503 60.9283 53.1483 60.9336 53.1463 60.939C53.1023 61.0683 53.0516 61.1956 52.9943 61.3216C52.3616 62.7024 50.9702 63.6664 49.3555 63.6664ZM58.0225 61.6663C56.7571 61.6663 55.4977 61.4977 54.463 61.1956C54.4637 61.1943 54.4637 61.193 54.4637 61.1916C54.5284 60.9756 54.5757 60.753 54.613 60.5263C54.6217 60.4723 54.6304 60.4189 54.6377 60.3643C54.6677 60.1349 54.689 59.9036 54.689 59.6663C54.689 59.4936 54.6797 59.3222 54.663 59.1522C54.657 59.0909 54.6464 59.0316 54.6384 58.9709C54.627 58.8849 54.619 58.7982 54.6037 58.7136C55.6151 58.9002 56.7898 58.9996 58.0225 58.9996C59.6159 58.9996 61.9193 58.7962 63.3586 58.1602L63.3626 60.2856C63.192 60.6983 61.1686 61.6663 58.0225 61.6663ZM58.0225 53.6661C54.887 53.6661 52.8683 52.7054 52.6923 52.3367C52.693 51.5767 52.6936 50.8053 52.6936 50.1626C52.7103 50.1699 52.7303 50.1759 52.7476 50.1833C52.907 50.2513 53.0736 50.3153 53.251 50.374C53.2603 50.3773 53.2696 50.3806 53.2796 50.3833C53.461 50.442 53.6523 50.4946 53.8477 50.5433C53.9117 50.5593 53.9777 50.574 54.043 50.5886C54.1857 50.6213 54.3297 50.6526 54.477 50.6806C54.5484 50.6946 54.619 50.708 54.691 50.7206C54.853 50.7493 55.0157 50.7746 55.1804 50.7986C55.2324 50.806 55.2837 50.8146 55.3357 50.822C55.5511 50.8506 55.7664 50.876 55.9804 50.8966C56.0344 50.902 56.0871 50.906 56.1411 50.9106C56.3057 50.9253 56.4684 50.9386 56.6298 50.9493C56.6998 50.954 56.7678 50.958 56.8364 50.962C56.9858 50.9706 57.1311 50.9773 57.2751 50.9826C57.3358 50.9846 57.3965 50.9873 57.4558 50.9893C57.6511 50.9946 57.8418 50.998 58.0218 50.998C58.2011 50.998 58.3918 50.9946 58.5872 50.9893C58.6478 50.9873 58.7092 50.9846 58.7705 50.9826C58.9132 50.9773 59.0578 50.9706 59.2065 50.962C59.2765 50.958 59.3452 50.954 59.4159 50.9493C59.5772 50.9386 59.7405 50.9253 59.9052 50.91C59.9585 50.9053 60.0105 50.9013 60.0639 50.896C60.2785 50.8746 60.4939 50.85 60.7092 50.8206C60.7619 50.8133 60.8139 50.8046 60.8666 50.7973C61.0306 50.774 61.1932 50.748 61.3546 50.7193C61.4273 50.7066 61.4979 50.6926 61.5693 50.6793C61.7166 50.6506 61.8613 50.62 62.0046 50.5866C62.0699 50.5713 62.1353 50.5573 62.1993 50.5413C62.3986 50.4913 62.5933 50.438 62.778 50.378C62.7873 50.3746 62.7953 50.3713 62.8046 50.3686C62.9786 50.3113 63.1433 50.2479 63.3 50.1813C63.3186 50.1733 63.3406 50.1666 63.3593 50.1586L63.3633 52.284C63.192 52.698 61.1686 53.6661 58.0225 53.6661Z" fill="#20A0DA"/>
</g>
<defs>
<clipPath id="clip0">
<rect width="40" height="40" fill="white" transform="translate(25 25)"/>
</clipPath>
</defs>
</svg>
