<?xml version="1.0" encoding="UTF-8" standalone="no"?>
<svg
   xmlns:dc="http://purl.org/dc/elements/1.1/"
   xmlns:cc="http://creativecommons.org/ns#"
   xmlns:rdf="http://www.w3.org/1999/02/22-rdf-syntax-ns#"
   xmlns:svg="http://www.w3.org/2000/svg"
   xmlns="http://www.w3.org/2000/svg"
   xmlns:sodipodi="http://sodipodi.sourceforge.net/DTD/sodipodi-0.dtd"
   xmlns:inkscape="http://www.inkscape.org/namespaces/inkscape"
   width="90"
   height="90"
   viewBox="0 0 90 90"
   fill="none"
   id="svg3399"
   version="1.1"
   inkscape:version="0.91 r13725"
   sodipodi:docname="transp.svg">
  <metadata
     id="metadata3420">
    <rdf:RDF>
      <cc:Work
         rdf:about="">
        <dc:format>image/svg+xml</dc:format>
        <dc:type
           rdf:resource="http://purl.org/dc/dcmitype/StillImage" />
        <dc:title></dc:title>
      </cc:Work>
    </rdf:RDF>
  </metadata>
  <sodipodi:namedview
     pagecolor="#ffffff"
     bordercolor="#666666"
     borderopacity="1"
     objecttolerance="10"
     gridtolerance="10"
     guidetolerance="10"
     inkscape:pageopacity="0"
     inkscape:pageshadow="2"
     inkscape:window-width="1920"
     inkscape:window-height="1017"
     id="namedview3418"
     showgrid="false"
     inkscape:zoom="2.6222222"
     inkscape:cx="45"
     inkscape:cy="45"
     inkscape:window-x="-8"
     inkscape:window-y="-8"
     inkscape:window-maximized="1"
     inkscape:current-layer="svg3399" />
  <defs
     id="defs3413">
    <clipPath
       id="clip0">
      <rect
         width="40"
         height="40"
         fill="white"
         transform="translate(25 25)"
         id="rect3416" />
    </clipPath>
  </defs>
  <circle
     style="fill:#d2ecf8"
     cx="45.762711"
     cy="45.381348"
     r="45"
     id="circle3338" />
  <path
     inkscape:connector-curvature="0"
     style="fill:#20a0da"
     d="m 55.230614,29.054757 c -5.5783,-2.307 -12.0094,-0.3532 -15.3617,4.667 -3.3523,5.0201 -2.6924,11.709 1.5761,15.9773 2.3756,2.3785 5.601,3.7124 8.9626,3.7066 6.0365,-0.007 11.2281,-4.2755 12.4009,-10.1969 1.1728,-5.9215 -1.9997,-11.847 -7.5779,-14.154 z m 5.6903,16.0211 c -2.0708,5.0076 -7.3911,7.8545 -12.7062,6.7989 -5.315,-1.0556 -9.1437,-5.7195 -9.1437,-11.1383 -0.005,-3.0081 1.1883,-5.8943 3.3164,-8.0201 3.8271,-3.8364 9.8316,-4.4341 14.3399,-1.4276 4.5084,3.0065 6.2643,8.7794 4.1936,13.7871 z"
     id="path3340" />
  <path
     inkscape:connector-curvature="0"
     style="fill:#20a0da"
     d="m 61.268714,29.876657 c -5.717,-5.7171 -14.8893,-6.0172 -20.9676,-0.6859 -6.0784,5.3312 -6.9772,14.4643 -2.0545,20.878 l -1.1784,1.1784 c -0.4577,-0.1237 -0.9468,0.006 -1.2833,0.3399 l -8.4927,8.4926 c -0.3342,0.3365 -0.4637,0.8255 -0.3398,1.2833 l -0.6039,0.6039 c -0.3751,0.375 -0.5858,0.8836 -0.5858,1.414 0,0.5303 0.2107,1.039 0.5858,1.4139 l 0.4712,-0.4716 -0.4696,0.4733 c 0.3749,0.375 0.8835,0.5857 1.4138,0.5857 0.5303,0 1.0389,-0.2107 1.4138,-0.5857 l 0.6041,-0.6041 c 0.4577,0.1309 0.9505,4e-4 1.2834,-0.34 l 8.4923,-8.4924 c 0.3343,-0.3364 0.4638,-0.8255 0.3399,-1.2833 l 1.1785,-1.1785 c 6.4136,4.9229 15.5468,4.0244 20.8781,-2.0538 5.3314,-6.0783 5.0316,-15.2506 -0.6853,-20.9677 z m -33.0337,33.9773 c -0.2636,0.2519 -0.6786,0.2519 -0.9422,0 l -0.002,-0.002 0,-4e-4 c -0.1251,-0.1248 -0.1953,-0.2943 -0.1953,-0.471 0,-0.1767 0.0702,-0.3462 0.1953,-0.471 l 0.4732,-0.4733 0.9444,0.9445 -0.4735,0.4731 z m 1.8878,-0.944 -0.944,-0.9439 -0.9434,-0.9436 -7e-4,-3e-4 6.6055,-6.6056 1.888,1.8879 -6.6054,6.6055 z m 7.5479,-7.548 -1.888,-1.8878 0.9445,-0.9446 3e-4,4e-4 0.9437,0.9435 0.9439,0.9441 -0.9444,0.9444 z m 1.4153,-2.3587 -0.4724,-0.4722 -0.4722,-0.4723 0.9684,-0.9684 c 0.151,0.1646 0.289,0.3368 0.4484,0.4963 0.1594,0.1594 0.3316,0.2974 0.4961,0.4483 l -0.9683,0.9683 z m 16.6838,0.6782 c -5.2356,2.1687 -11.262,0.97 -15.2691,-3.0372 -5.4627,-5.4754 -5.4627,-14.3393 0,-19.8147 4.0071,-4.0071 10.0335,-5.2059 15.2691,-3.0373 5.2357,2.1687 8.6493,7.2776 8.6493,12.9446 0,5.667 -3.4137,10.7759 -8.6493,12.9446 z"
     id="path3342" />
  <path
     inkscape:connector-curvature="0"
     style="fill:#20a0da"
     d="m 55.755014,38.721457 c -0.7359,7e-4 -1.3322,0.5971 -1.333,1.333 l 0,3.3324 -1.333,0 0,-5.9983 c -7e-4,-0.7358 -0.5971,-1.3322 -1.3329,-1.3329 l -1.9995,0 c -0.7358,7e-4 -1.3322,0.5971 -1.3329,1.3329 l 0,5.9983 -1.333,0 0,-8.6642 c -7e-4,-0.7359 -0.5971,-1.3322 -1.333,-1.333 l -1.9994,0 c -0.7359,7e-4 -1.3322,0.5971 -1.333,1.333 l 0,9.3307 c 0,0.3681 0.2983,0.6664 0.6664,0.6664 l 15.329,0 c 0.3681,0 0.6665,-0.2983 0.6665,-0.6664 l 0,-3.9989 c -7e-4,-0.7359 -0.5971,-1.3322 -1.333,-1.333 l -1.9992,0 z m -9.9971,4.6654 -1.9995,0 -9e-4,-8.6641 2.0004,0 0,8.6641 z m 5.9982,0 -1.9994,0 -9e-4,-5.9983 2.0003,0 0,5.9983 z m 5.9983,0 -1.9994,0 -9e-4,-3.3324 2.0003,0 0,3.3324 z"
     id="path3344" />
  <path
     inkscape:connector-curvature="0"
     style="fill:#20a0da"
     d="m 57.087814,46.053257 -0.6665,0 c -0.3681,0 -0.6664,0.2984 -0.6664,0.6664 0,0.3681 0.2983,0.6665 0.6664,0.6665 l 0.6665,0 c 0.3681,0 0.6664,-0.2985 0.6664,-0.6665 0,-0.368 -0.2983,-0.6664 -0.6664,-0.6664 z"
     id="path3346" />
  <path
     inkscape:connector-curvature="0"
     style="fill:#20a0da"
     d="m 51.089314,46.053257 -0.6665,0 c -0.3681,0 -0.6664,0.2984 -0.6664,0.6664 0,0.3681 0.2983,0.6665 0.6664,0.6665 l 0.6665,0 c 0.3681,0 0.6664,-0.2985 0.6664,-0.6665 0,-0.368 -0.2983,-0.6664 -0.6664,-0.6664 z"
     id="path3348" />
  <path
     inkscape:connector-curvature="0"
     style="fill:#20a0da"
     d="m 45.091214,46.053257 -0.6664,0 c -0.3681,0 -0.6665,0.2984 -0.6665,0.6664 0,0.3681 0.2984,0.6665 0.6665,0.6665 l 0.6664,0 c 0.3681,0 0.6665,-0.2985 0.6665,-0.6665 0,-0.368 -0.2984,-0.6664 -0.6665,-0.6664 z"
     id="path3350" />
</svg>
